<svg width="256" height="200" viewBox="0 0 256 200" fill="none" xmlns="http://www.w3.org/2000/svg">
<g clip-path="url(#clip0_1_2)">
<path fill-rule="evenodd" clip-rule="evenodd" d="M88 44.0921V156H55.8371V44.0921C55.8371 37.5423 50.5361 32.2303 44 32.2303C40.8677 32.2303 37.8485 33.4822 35.6304 35.705C33.4123 37.9278 32.1629 40.9533 32.1629 44.0921C32.1629 47.24 33.4095 50.2536 35.6304 52.4792L12.8878 75.2695C4.63928 67.0037 0 55.7939 0 44.0921C0 32.4073 4.63646 21.1834 12.8878 12.9148C21.1391 4.64616 32.3396 0 44 0C54.6367 0 64.3923 3.78287 72 10.0792C79.6077 3.78287 89.3633 5.85523e-06 100 5.85523e-06C110.642 5.85523e-06 120.401 3.78627 128.01 10.0877C135.633 3.78641 145.41 3.63728e-05 156.072 3.63728e-05C175.589 3.63728e-05 192.144 12.6887 197.938 30.2661C202.333 28.7963 207.038 28 211.928 28C236.267 28 256 47.7231 256 72.0499C256 110.928 233.786 144.625 201.354 161.151C203.285 165.08 207.328 167.785 212 167.785V200C192.936 200 176.697 187.893 170.554 170.949C165.803 171.641 160.943 172 156 172V139.801C160.045 139.801 164.006 139.446 167.856 138.767V72.0499C167.856 71.1987 167.881 70.3532 167.928 69.5139V44.0718C167.928 37.525 162.619 32.2155 156.072 32.2155C149.525 32.2155 144.215 37.525 144.215 44.0718H144V44.0921V156H111.837V44.0921C111.837 37.5423 106.536 32.2303 100 32.2303C93.4639 32.2303 88.1629 37.5423 88.1629 44.0921L88 44.0921ZM200.144 123.463C214.616 111.037 223.785 92.6125 223.785 72.0499C223.785 65.5063 218.475 60.1994 211.928 60.1994C205.825 60.1994 200.797 64.8117 200.144 70.7384V123.463Z" fill="url(#paint0_radial_1_2)"/>
</g>
<defs>
<radialGradient id="paint0_radial_1_2" cx="0" cy="0" r="1" gradientUnits="userSpaceOnUse" gradientTransform="translate(41 38.5) rotate(36.9125) scale(268.9 344.192)">
<stop stop-color="#9727BE"/>
<stop offset="1" stop-color="#006FD6"/>
</radialGradient>
<clipPath id="clip0_1_2">
<rect width="256" height="200" fill="white"/>
</clipPath>
</defs>
</svg>
