<svg width="149" height="256" viewBox="0 0 149 256" fill="none" xmlns="http://www.w3.org/2000/svg">
<line x1="2" y1="16.5" x2="146" y2="16.5" stroke="white" stroke-opacity="0.17"/>
<line x1="2" y1="143.5" x2="146" y2="143.5" stroke="white" stroke-opacity="0.17"/>
<line x1="2" y1="161.5" x2="146" y2="161.5" stroke="white" stroke-opacity="0.17"/>
<line y1="233.5" x2="149" y2="233.5" stroke="white" stroke-opacity="0.17"/>
<line x1="10" y1="0.5" x2="22" y2="0.5" stroke="white" stroke-opacity="0.27"/>
<line x1="10" y1="4.5" x2="22" y2="4.5" stroke="white" stroke-opacity="0.27"/>
<line x1="10" y1="8.5" x2="22" y2="8.5" stroke="white" stroke-opacity="0.27"/>
<rect x="13" y="171" width="45" height="8" fill="white" fill-opacity="0.12"/>
<rect x="13" y="240" width="45" height="8" fill="white" fill-opacity="0.12"/>
<rect x="62" y="240" width="16" height="8" fill="white" fill-opacity="0.12"/>
<rect x="13" y="185" width="98" height="4" fill="white" fill-opacity="0.12"/>
<rect x="13" y="252" width="98" height="4" fill="white" fill-opacity="0.12"/>
<rect x="13" y="193" width="110" height="4" fill="white" fill-opacity="0.12"/>
<rect x="13" y="201" width="106" height="4" fill="white" fill-opacity="0.12"/>
<rect x="13" y="209" width="111" height="4" fill="white" fill-opacity="0.12"/>
<rect x="13" y="217" width="93" height="4" fill="white" fill-opacity="0.12"/>
</svg>
