<svg width="377" height="266" viewBox="0 0 377 266" fill="none" xmlns="http://www.w3.org/2000/svg">
<path d="M239.247 21.0256C242.817 18.7246 245.942 15.9837 249.703 13.9589C256.905 10.0809 264.751 7.69375 272.814 6.2793C280.747 4.88749 288.978 5.45004 297.006 5.45004" stroke="white" stroke-opacity="0.75" stroke-linecap="round"/>
<path d="M292.463 0.90715C293.991 2.06466 297.052 4.20956 298.304 5.77452C298.317 5.79063 295.113 8.04597 293.761 8.04597" stroke="white" stroke-opacity="0.75" stroke-linecap="round"/>
<path d="M121.132 144.332C109.853 156.949 95.7745 170.292 77.6499 170.292" stroke="white" stroke-opacity="0.75" stroke-linecap="round"/>
<path d="M81.8683 163.477C80.4558 165.917 78.1997 167.894 77.0009 170.292" stroke="white" stroke-opacity="0.75" stroke-linecap="round"/>
<path d="M77.0009 170.292C78.5623 172.353 80.4108 174.079 82.5172 175.484" stroke="white" stroke-opacity="0.75" stroke-linecap="round"/>
<path d="M307.89 10.056C307.759 10.0933 307.685 10.112 307.666 10.112C307.591 10.112 307.512 10.0747 307.428 10C307.12 9.54267 306.896 8.74467 306.756 7.606C306.625 6.46733 306.56 5.48733 306.56 4.666C306.56 4.53533 306.653 4.47 306.84 4.47C307.12 4.47 307.26 4.624 307.26 4.932C307.26 5.016 307.255 5.086 307.246 5.142C307.33 4.946 307.489 4.74533 307.722 4.54C307.955 4.33467 308.226 4.162 308.534 4.022C308.842 3.882 309.155 3.812 309.472 3.812C310.471 3.812 311.199 4.25533 311.656 5.142C312.113 6.01933 312.342 7.11133 312.342 8.418C312.342 8.866 312.295 9.22533 312.202 9.496C312.109 9.75733 311.983 9.888 311.824 9.888C311.656 9.888 311.572 9.83667 311.572 9.734C311.637 9.23933 311.67 8.754 311.67 8.278C311.67 7.074 311.46 6.164 311.04 5.548C310.62 4.92267 310.065 4.61 309.374 4.61C309.038 4.61 308.711 4.694 308.394 4.862C308.086 5.03 307.834 5.26333 307.638 5.562C307.451 5.86067 307.358 6.20133 307.358 6.584C307.358 7.01333 307.381 7.38667 307.428 7.704C307.475 8.02133 307.549 8.404 307.652 8.852C307.764 9.29067 307.843 9.692 307.89 10.056ZM317.902 10C316.932 10 316.087 9.832 315.368 9.496C314.659 9.15067 314.304 8.54867 314.304 7.69C314.304 7.382 314.398 7.08333 314.584 6.794C314.771 6.50467 315.046 6.27133 315.41 6.094C315.774 5.90733 316.218 5.814 316.74 5.814C317.142 5.814 317.482 5.83267 317.762 5.87C318.042 5.90733 318.364 6.01 318.728 6.178C319.092 6.346 319.47 6.612 319.862 6.976C319.713 6.332 319.489 5.76733 319.19 5.282C318.892 4.79667 318.556 4.42333 318.182 4.162C317.818 3.89133 317.459 3.756 317.104 3.756C316.936 3.756 316.778 3.78867 316.628 3.854C316.488 3.91 316.316 3.994 316.11 4.106C315.877 4.25533 315.704 4.33 315.592 4.33C315.546 4.33 315.504 4.316 315.466 4.288C315.438 4.25067 315.424 4.20867 315.424 4.162C315.424 3.78867 315.588 3.49933 315.914 3.294C316.25 3.08867 316.656 2.99533 317.132 3.014C317.786 3.05133 318.383 3.33133 318.924 3.854C319.466 4.36733 319.89 5.00667 320.198 5.772C320.516 6.53733 320.674 7.28867 320.674 8.026C320.674 8.14733 320.665 8.32 320.646 8.544L320.198 8.516C319.844 7.79733 319.386 7.28867 318.826 6.99C318.276 6.682 317.72 6.528 317.16 6.528C316.442 6.528 315.928 6.63533 315.62 6.85C315.312 7.06467 315.158 7.37733 315.158 7.788C315.158 8.21733 315.373 8.56267 315.802 8.824C316.232 9.08533 316.782 9.216 317.454 9.216C317.828 9.216 318.126 9.19733 318.35 9.16C318.574 9.11333 318.808 9.05267 319.05 8.978C319.246 8.91267 319.419 8.866 319.568 8.838C319.718 8.81 319.909 8.796 320.142 8.796C320.404 8.796 320.567 8.81467 320.632 8.852C320.707 8.88933 320.744 8.97333 320.744 9.104C320.744 9.19733 320.553 9.314 320.17 9.454C319.788 9.594 319.358 9.72 318.882 9.832C318.406 9.944 318.08 10 317.902 10ZM325.113 10.014C324.842 10.014 324.488 9.61267 324.049 8.81C323.62 7.998 323.12 6.97133 322.551 5.73L322.145 4.862C322.145 4.76867 322.201 4.68 322.313 4.596C322.425 4.50267 322.593 4.46067 322.817 4.47C322.873 4.57267 323.05 4.95067 323.349 5.604C323.704 6.36933 324.002 6.99933 324.245 7.494C324.497 7.97933 324.8 8.502 325.155 9.062C325.314 8.48333 325.491 7.942 325.687 7.438C325.892 6.92467 326.196 6.20133 326.597 5.268L326.807 4.778C326.863 4.666 326.97 4.61 327.129 4.61C327.241 4.61 327.339 4.638 327.423 4.694C327.507 4.75 327.549 4.82933 327.549 4.932C327.549 5.02533 327.502 5.12333 327.409 5.226C327.344 5.29133 327.25 5.48267 327.129 5.8C327.008 6.108 326.882 6.45333 326.751 6.836C326.396 7.844 326.088 8.63267 325.827 9.202C325.566 9.762 325.328 10.0327 325.113 10.014ZM332.711 10.014C331.965 10.014 331.377 9.86933 330.947 9.58C330.518 9.28133 330.201 8.83333 329.995 8.236C329.79 7.62933 329.655 6.81733 329.589 5.8L329.183 3.434C329.146 3.08867 329.095 2.75267 329.029 2.426C328.964 2.09933 328.931 1.866 328.931 1.726C328.931 1.53 328.987 1.38533 329.099 1.292C329.211 1.18933 329.412 1.11933 329.701 1.082C329.757 1.54867 329.795 1.89867 329.813 2.132C329.916 3.03733 330 3.73267 330.065 4.218C330.14 4.694 330.233 5.19333 330.345 5.716C331.064 5.39867 331.755 5.24 332.417 5.24C333.015 5.24 333.547 5.366 334.013 5.618C334.48 5.86067 334.844 6.206 335.105 6.654C335.367 7.09267 335.497 7.58733 335.497 8.138C335.497 8.782 335.213 9.258 334.643 9.566C334.083 9.86467 333.439 10.014 332.711 10.014ZM334.713 8.166C334.723 8.10067 334.727 8.00733 334.727 7.886C334.727 7.22333 334.499 6.72867 334.041 6.402C333.593 6.07533 332.954 5.912 332.123 5.912C331.61 5.912 331.209 6.01467 330.919 6.22C330.639 6.416 330.499 6.68667 330.499 7.032C330.499 7.82533 330.714 8.404 331.143 8.768C331.582 9.132 332.249 9.314 333.145 9.314C333.575 9.314 333.934 9.216 334.223 9.02C334.513 8.824 334.676 8.53933 334.713 8.166ZM340.78 10C339.809 10 338.964 9.832 338.246 9.496C337.536 9.15067 337.182 8.54867 337.182 7.69C337.182 7.382 337.275 7.08333 337.462 6.794C337.648 6.50467 337.924 6.27133 338.288 6.094C338.652 5.90733 339.095 5.814 339.618 5.814C340.019 5.814 340.36 5.83267 340.64 5.87C340.92 5.90733 341.242 6.01 341.606 6.178C341.97 6.346 342.348 6.612 342.74 6.976C342.59 6.332 342.366 5.76733 342.068 5.282C341.769 4.79667 341.433 4.42333 341.06 4.162C340.696 3.89133 340.336 3.756 339.982 3.756C339.814 3.756 339.655 3.78867 339.506 3.854C339.366 3.91 339.193 3.994 338.988 4.106C338.754 4.25533 338.582 4.33 338.47 4.33C338.423 4.33 338.381 4.316 338.344 4.288C338.316 4.25067 338.302 4.20867 338.302 4.162C338.302 3.78867 338.465 3.49933 338.792 3.294C339.128 3.08867 339.534 2.99533 340.01 3.014C340.663 3.05133 341.26 3.33133 341.802 3.854C342.343 4.36733 342.768 5.00667 343.076 5.772C343.393 6.53733 343.552 7.28867 343.552 8.026C343.552 8.14733 343.542 8.32 343.524 8.544L343.076 8.516C342.721 7.79733 342.264 7.28867 341.704 6.99C341.153 6.682 340.598 6.528 340.038 6.528C339.319 6.528 338.806 6.63533 338.498 6.85C338.19 7.06467 338.036 7.37733 338.036 7.788C338.036 8.21733 338.25 8.56267 338.68 8.824C339.109 9.08533 339.66 9.216 340.332 9.216C340.705 9.216 341.004 9.19733 341.228 9.16C341.452 9.11333 341.685 9.05267 341.928 8.978C342.124 8.91267 342.296 8.866 342.446 8.838C342.595 8.81 342.786 8.796 343.02 8.796C343.281 8.796 343.444 8.81467 343.51 8.852C343.584 8.88933 343.622 8.97333 343.622 9.104C343.622 9.19733 343.43 9.314 343.048 9.454C342.665 9.594 342.236 9.72 341.76 9.832C341.284 9.944 340.957 10 340.78 10ZM346.814 10C346.432 9.25333 346.128 8.376 345.904 7.368C345.69 6.36 345.582 5.48733 345.582 4.75C345.582 4.46067 345.648 4.274 345.778 4.19C345.853 4.14333 345.909 4.12 345.946 4.12C346.012 4.12 346.058 4.17133 346.086 4.274C346.124 4.37667 346.161 4.56333 346.198 4.834L346.268 5.338C346.371 4.834 346.567 4.43733 346.856 4.148C347.155 3.84933 347.519 3.7 347.948 3.7C348.424 3.7 348.779 3.79333 349.012 3.98C349.246 4.15733 349.362 4.456 349.362 4.876C348.896 4.652 348.471 4.54 348.088 4.54C347.724 4.54 347.412 4.638 347.15 4.834C346.889 5.03 346.707 5.31933 346.604 5.702C346.52 5.96333 346.478 6.21067 346.478 6.444C346.478 6.696 346.511 6.934 346.576 7.158C346.651 7.37267 346.763 7.63867 346.912 7.956C347.052 8.28267 347.16 8.56267 347.234 8.796C347.318 9.02933 347.365 9.28133 347.374 9.552C347.374 9.71067 347.318 9.82733 347.206 9.902C347.094 9.96733 346.964 10 346.814 10ZM310.004 24.014C308.912 24.014 308.063 23.7667 307.456 23.272C306.859 22.768 306.56 21.9933 306.56 20.948C306.56 20.416 306.691 19.912 306.952 19.436C307.223 18.9507 307.582 18.5633 308.03 18.274C308.487 17.9753 308.977 17.826 309.5 17.826C310.032 17.826 310.485 17.9427 310.858 18.176C311.231 18.4 311.418 18.7267 311.418 19.156C311.418 19.4547 311.362 19.6693 311.25 19.8C311.147 19.9213 311.031 19.982 310.9 19.982C310.9 19.534 310.779 19.17 310.536 18.89C310.293 18.61 309.948 18.47 309.5 18.47C309.052 18.47 308.665 18.5913 308.338 18.834C308.011 19.0673 307.759 19.38 307.582 19.772C307.414 20.1547 307.33 20.556 307.33 20.976C307.33 21.8627 307.629 22.4647 308.226 22.782C308.833 23.0993 309.631 23.258 310.62 23.258C310.956 23.258 311.395 23.2393 311.936 23.202C311.955 23.202 311.997 23.2207 312.062 23.258C312.127 23.2953 312.179 23.3187 312.216 23.328V23.412C312.216 23.6827 311.978 23.8507 311.502 23.916C311.026 23.9813 310.527 24.014 310.004 24.014ZM316.519 24.014C315.968 24.014 315.469 23.8927 315.021 23.65C314.582 23.398 314.237 23.0527 313.985 22.614C313.742 22.166 313.621 21.6573 313.621 21.088C313.621 20.1547 313.961 19.4593 314.643 19.002C315.333 18.5447 316.178 18.316 317.177 18.316C317.634 18.316 318.059 18.428 318.451 18.652C318.852 18.876 319.174 19.198 319.417 19.618C319.659 20.038 319.781 20.5233 319.781 21.074C319.781 21.6713 319.627 22.194 319.319 22.642C319.011 23.0807 318.605 23.4213 318.101 23.664C317.606 23.8973 317.079 24.014 316.519 24.014ZM316.365 23.216C317.233 23.216 317.891 23.02 318.339 22.628C318.787 22.236 319.011 21.662 319.011 20.906C319.011 20.3927 318.833 19.9493 318.479 19.576C318.133 19.2027 317.648 19.016 317.023 19.016C316.603 19.016 316.178 19.0953 315.749 19.254C315.319 19.4127 314.965 19.6507 314.685 19.968C314.405 20.2853 314.265 20.668 314.265 21.116C314.265 21.4893 314.358 21.8393 314.545 22.166C314.731 22.4833 314.983 22.74 315.301 22.936C315.627 23.1227 315.982 23.216 316.365 23.216ZM330.82 24.014C330.68 24.014 330.596 23.9767 330.568 23.902C330.54 23.818 330.526 23.692 330.526 23.524C330.535 23.4587 330.54 23.384 330.54 23.3C330.54 23.2067 330.545 23.1367 330.554 23.09C330.61 22.642 330.638 22.2173 330.638 21.816C330.638 20.9293 330.489 20.2387 330.19 19.744C329.891 19.24 329.42 18.988 328.776 18.988C328.421 18.988 328.067 19.0767 327.712 19.254C327.367 19.4313 327.082 19.6507 326.858 19.912C326.643 20.1733 326.536 20.4113 326.536 20.626C326.583 20.8967 326.667 21.228 326.788 21.62C326.797 21.6667 326.835 21.8113 326.9 22.054C326.975 22.2967 327.012 22.516 327.012 22.712L327.026 22.978C327.026 23.1273 326.951 23.202 326.802 23.202C326.615 23.202 326.461 23.0807 326.34 22.838C326.228 22.5953 326.102 22.2173 325.962 21.704C325.822 21.2 325.687 20.7847 325.556 20.458C325.425 20.1313 325.248 19.8513 325.024 19.618C324.8 19.3847 324.515 19.268 324.17 19.268C323.694 19.268 323.321 19.4313 323.05 19.758C322.789 20.0847 322.658 20.486 322.658 20.962C322.658 21.2793 322.686 21.6993 322.742 22.222C322.789 22.614 322.812 22.95 322.812 23.23C322.812 23.398 322.793 23.524 322.756 23.608C322.719 23.692 322.63 23.734 322.49 23.734C322.303 23.734 322.173 23.6733 322.098 23.552C322.023 23.4213 321.986 23.2253 321.986 22.964C321.986 22.4507 321.958 21.83 321.902 21.102C321.893 21.0087 321.874 20.7707 321.846 20.388C321.818 19.996 321.813 19.604 321.832 19.212L321.846 18.75C321.902 18.694 321.967 18.666 322.042 18.666C322.145 18.666 322.229 18.7313 322.294 18.862C322.369 18.9833 322.406 19.17 322.406 19.422C322.546 19.1793 322.751 18.96 323.022 18.764C323.293 18.568 323.577 18.47 323.876 18.47C324.389 18.47 324.814 18.5773 325.15 18.792C325.495 18.9973 325.808 19.3333 326.088 19.8C326.349 19.324 326.741 18.918 327.264 18.582C327.796 18.246 328.342 18.078 328.902 18.078C329.481 18.078 329.961 18.2973 330.344 18.736C330.736 19.1747 331.021 19.702 331.198 20.318C331.385 20.934 331.478 21.5033 331.478 22.026C331.478 22.4927 331.436 22.9407 331.352 23.37C331.277 23.7993 331.1 24.014 330.82 24.014ZM335.095 28.984C334.909 28.984 334.685 28.4847 334.423 27.486C334.171 26.4873 333.943 25.3767 333.737 24.154C333.541 22.9407 333.443 22.1753 333.443 21.858C333.443 20.9153 333.761 20.2293 334.395 19.8C335.03 19.3613 335.847 19.142 336.845 19.142C337.377 19.142 337.881 19.254 338.357 19.478C338.833 19.6927 339.216 20.0053 339.505 20.416C339.795 20.8173 339.939 21.284 339.939 21.816C339.939 22.4787 339.706 22.9453 339.239 23.216C338.782 23.4867 338.203 23.622 337.503 23.622C336.775 23.622 336.155 23.5007 335.641 23.258C335.137 23.006 334.885 22.6653 334.885 22.236L334.899 22.096C334.965 22.0213 335.035 21.984 335.109 21.984C335.175 21.984 335.245 22.012 335.319 22.068C335.403 22.1147 335.492 22.1707 335.585 22.236C335.875 22.4507 336.159 22.6233 336.439 22.754C336.729 22.8847 337.088 22.95 337.517 22.95C338.105 22.95 338.521 22.8473 338.763 22.642C339.015 22.4273 339.141 22.0913 339.141 21.634C339.141 21.298 339.029 20.9993 338.805 20.738C338.581 20.4767 338.292 20.276 337.937 20.136C337.583 19.996 337.219 19.926 336.845 19.926C335.977 19.926 335.324 20.1127 334.885 20.486C334.447 20.85 334.251 21.4613 334.297 22.32C334.381 23.776 334.512 24.9987 334.689 25.988C334.876 26.9773 335.198 27.8173 335.655 28.508L335.669 28.536C335.669 28.5547 335.646 28.5733 335.599 28.592C335.562 28.62 335.534 28.6433 335.515 28.662C335.403 28.8393 335.263 28.9467 335.095 28.984ZM344.797 24.014C344.246 24.014 343.747 23.8927 343.299 23.65C342.86 23.398 342.515 23.0527 342.263 22.614C342.02 22.166 341.899 21.6573 341.899 21.088C341.899 20.1547 342.239 19.4593 342.921 19.002C343.611 18.5447 344.456 18.316 345.455 18.316C345.912 18.316 346.337 18.428 346.729 18.652C347.13 18.876 347.452 19.198 347.695 19.618C347.937 20.038 348.059 20.5233 348.059 21.074C348.059 21.6713 347.905 22.194 347.597 22.642C347.289 23.0807 346.883 23.4213 346.379 23.664C345.884 23.8973 345.357 24.014 344.797 24.014ZM344.643 23.216C345.511 23.216 346.169 23.02 346.617 22.628C347.065 22.236 347.289 21.662 347.289 20.906C347.289 20.3927 347.111 19.9493 346.757 19.576C346.411 19.2027 345.926 19.016 345.301 19.016C344.881 19.016 344.456 19.0953 344.027 19.254C343.597 19.4127 343.243 19.6507 342.963 19.968C342.683 20.2853 342.543 20.668 342.543 21.116C342.543 21.4893 342.636 21.8393 342.823 22.166C343.009 22.4833 343.261 22.74 343.579 22.936C343.905 23.1227 344.26 23.216 344.643 23.216ZM351.342 24.056C351.211 24.0933 351.137 24.112 351.118 24.112C351.043 24.112 350.964 24.0747 350.88 24C350.572 23.5427 350.348 22.7447 350.208 21.606C350.077 20.4673 350.012 19.4873 350.012 18.666C350.012 18.5353 350.105 18.47 350.292 18.47C350.572 18.47 350.712 18.624 350.712 18.932C350.712 19.016 350.707 19.086 350.698 19.142C350.782 18.946 350.941 18.7453 351.174 18.54C351.407 18.3347 351.678 18.162 351.986 18.022C352.294 17.882 352.607 17.812 352.924 17.812C353.923 17.812 354.651 18.2553 355.108 19.142C355.565 20.0193 355.794 21.1113 355.794 22.418C355.794 22.866 355.747 23.2253 355.654 23.496C355.561 23.7573 355.435 23.888 355.276 23.888C355.108 23.888 355.024 23.8367 355.024 23.734C355.089 23.2393 355.122 22.754 355.122 22.278C355.122 21.074 354.912 20.164 354.492 19.548C354.072 18.9227 353.517 18.61 352.826 18.61C352.49 18.61 352.163 18.694 351.846 18.862C351.538 19.03 351.286 19.2633 351.09 19.562C350.903 19.8607 350.81 20.2013 350.81 20.584C350.81 21.0133 350.833 21.3867 350.88 21.704C350.927 22.0213 351.001 22.404 351.104 22.852C351.216 23.2907 351.295 23.692 351.342 24.056ZM361.06 24C360.463 24 359.912 23.8833 359.408 23.65C358.904 23.4167 358.503 23.0853 358.204 22.656C357.906 22.2267 357.756 21.732 357.756 21.172C357.756 20.5467 357.873 19.9633 358.106 19.422C358.34 18.8713 358.68 18.4327 359.128 18.106C359.586 17.77 360.118 17.602 360.724 17.602C361.359 17.602 361.84 17.8073 362.166 18.218C362.493 18.6193 362.647 19.128 362.628 19.744C362.628 20.2947 362.409 20.7147 361.97 21.004C361.541 21.2933 360.99 21.438 360.318 21.438C360.216 21.438 360.062 21.4287 359.856 21.41C359.52 21.3727 359.282 21.3213 359.142 21.256C359.002 21.1907 358.932 21.06 358.932 20.864C358.932 20.7987 358.951 20.752 358.988 20.724C359.026 20.6867 359.1 20.668 359.212 20.668C359.334 20.668 359.548 20.696 359.856 20.752C360.155 20.808 360.421 20.836 360.654 20.836C361.513 20.836 361.942 20.4627 361.942 19.716C361.942 19.268 361.858 18.9133 361.69 18.652C361.532 18.3907 361.247 18.26 360.836 18.26C360.388 18.26 359.987 18.3813 359.632 18.624C359.278 18.8573 359.002 19.1653 358.806 19.548C358.62 19.9307 358.526 20.3367 358.526 20.766C358.526 21.5033 358.732 22.11 359.142 22.586C359.553 23.0527 360.188 23.286 361.046 23.286C361.149 23.286 361.322 23.2767 361.564 23.258C361.667 23.2487 361.793 23.2207 361.942 23.174C362.092 23.1273 362.199 23.0947 362.264 23.076C362.666 22.936 362.96 22.866 363.146 22.866C363.286 22.866 363.394 22.9033 363.468 22.978C363.235 23.3327 362.885 23.594 362.418 23.762C361.961 23.9207 361.508 24 361.06 24ZM366.202 24.056C366.071 24.0933 365.996 24.112 365.978 24.112C365.903 24.112 365.824 24.0747 365.74 24C365.432 23.5427 365.208 22.7447 365.068 21.606C364.937 20.4673 364.872 19.4873 364.872 18.666C364.872 18.5353 364.965 18.47 365.152 18.47C365.432 18.47 365.572 18.624 365.572 18.932C365.572 19.016 365.567 19.086 365.558 19.142C365.642 18.946 365.8 18.7453 366.034 18.54C366.267 18.3347 366.538 18.162 366.846 18.022C367.154 17.882 367.466 17.812 367.784 17.812C368.782 17.812 369.51 18.2553 369.968 19.142C370.425 20.0193 370.654 21.1113 370.654 22.418C370.654 22.866 370.607 23.2253 370.514 23.496C370.42 23.7573 370.294 23.888 370.136 23.888C369.968 23.888 369.884 23.8367 369.884 23.734C369.949 23.2393 369.982 22.754 369.982 22.278C369.982 21.074 369.772 20.164 369.352 19.548C368.932 18.9227 368.376 18.61 367.686 18.61C367.35 18.61 367.023 18.694 366.706 18.862C366.398 19.03 366.146 19.2633 365.95 19.562C365.763 19.8607 365.67 20.2013 365.67 20.584C365.67 21.0133 365.693 21.3867 365.74 21.704C365.786 22.0213 365.861 22.404 365.964 22.852C366.076 23.2907 366.155 23.692 366.202 24.056ZM374.87 24C374.777 24.0187 374.716 24.028 374.688 24.028C374.399 24.028 374.198 23.8133 374.086 23.384C373.983 22.9547 373.932 22.3527 373.932 21.578C373.932 21.2607 373.941 20.766 373.96 20.094C373.979 19.6833 373.988 19.3753 373.988 19.17C372.84 19.17 372.266 19.0393 372.266 18.778C372.266 18.694 372.275 18.6287 372.294 18.582C372.322 18.5353 372.378 18.512 372.462 18.512L373.988 18.414C373.979 17.9567 373.955 17.4573 373.918 16.916C373.881 16.4307 373.857 15.9827 373.848 15.572C373.848 15.4693 373.89 15.3993 373.974 15.362C374.058 15.3153 374.147 15.292 374.24 15.292C374.352 15.292 374.445 15.3527 374.52 15.474C374.595 15.586 374.632 15.7027 374.632 15.824L374.73 18.386L375.892 18.442C376.069 18.4233 376.219 18.456 376.34 18.54C376.471 18.624 376.541 18.764 376.55 18.96C376.354 19.044 376.139 19.0953 375.906 19.114C375.673 19.1327 375.281 19.142 374.73 19.142C374.73 20.01 374.772 21.438 374.856 23.426C374.856 23.6313 374.856 23.776 374.856 23.86C374.865 23.9347 374.87 23.9813 374.87 24Z" fill="white"/>
<path d="M299.8 245.348C299.93 245.245 300.056 245.194 300.178 245.194C300.29 245.194 300.397 245.227 300.5 245.292C300.612 245.357 300.724 245.441 300.836 245.544C300.948 245.637 301.036 245.707 301.102 245.754C301.316 245.922 301.61 246.053 301.984 246.146C302.357 246.239 302.754 246.286 303.174 246.286C303.65 246.286 304.074 246.197 304.448 246.02C304.83 245.833 305.022 245.586 305.022 245.278C305.022 244.998 304.919 244.779 304.714 244.62C304.508 244.452 304.261 244.331 303.972 244.256C303.682 244.181 303.3 244.111 302.824 244.046C302.18 243.971 301.666 243.878 301.284 243.766C300.91 243.654 300.612 243.472 300.388 243.22C300.164 242.959 300.052 242.595 300.052 242.128C300.052 241.624 300.29 241.251 300.766 241.008C301.242 240.756 301.788 240.63 302.404 240.63C302.964 240.63 303.44 240.751 303.832 240.994C304.233 241.227 304.438 241.563 304.448 242.002C304.466 242.254 304.429 242.455 304.336 242.604C304.242 242.744 304.13 242.814 304 242.814C303.925 242.814 303.86 242.786 303.804 242.73C303.757 242.674 303.734 242.599 303.734 242.506C303.734 242.357 303.785 242.193 303.888 242.016C303.841 241.792 303.687 241.624 303.426 241.512C303.174 241.4 302.87 241.344 302.516 241.344C301.993 241.344 301.578 241.442 301.27 241.638C300.962 241.825 300.808 242.049 300.808 242.31C300.808 242.59 300.92 242.805 301.144 242.954C301.368 243.103 301.638 243.211 301.956 243.276C302.282 243.332 302.744 243.388 303.342 243.444C303.836 243.509 304.238 243.589 304.546 243.682C304.863 243.775 305.129 243.957 305.344 244.228C305.558 244.489 305.666 244.867 305.666 245.362C305.666 245.875 305.428 246.281 304.952 246.58C304.476 246.869 303.906 247.014 303.244 247.014C302.394 247.014 301.634 246.869 300.962 246.58C300.299 246.291 299.912 245.88 299.8 245.348ZM308.463 246.902C308.257 245.885 308.099 244.681 307.987 243.29C307.884 241.89 307.833 240.537 307.833 239.23C307.833 238.577 307.847 237.998 307.875 237.494C307.875 237.373 307.968 237.312 308.155 237.312C308.304 237.312 308.397 237.349 308.435 237.424C308.481 237.499 308.505 237.615 308.505 237.774C308.505 239.286 308.533 240.579 308.589 241.652C308.645 242.716 308.719 243.864 308.813 245.096C308.869 245.889 308.906 246.426 308.925 246.706C308.934 246.855 308.855 246.93 308.687 246.93C308.631 246.93 308.556 246.921 308.463 246.902ZM311.822 247.014C311.607 247.014 311.435 246.701 311.304 246.076C311.173 245.441 311.089 244.895 311.052 244.438C311.015 243.981 310.963 243.257 310.898 242.268C310.889 242.109 310.884 241.904 310.884 241.652C310.884 241.335 310.907 241.115 310.954 240.994C311.01 240.873 311.099 240.812 311.22 240.812C311.323 240.812 311.402 240.835 311.458 240.882C311.523 240.919 311.579 240.985 311.626 241.078L311.612 241.638C311.612 242.235 311.64 242.8 311.696 243.332C311.761 243.864 311.859 244.578 311.99 245.474C312.065 245.866 312.116 246.188 312.144 246.44C312.163 246.571 312.139 246.701 312.074 246.832C312.009 246.953 311.925 247.014 311.822 247.014ZM311.472 239.314C311.267 239.314 311.113 239.235 311.01 239.076C310.917 238.917 310.87 238.721 310.87 238.488C310.87 238.385 310.875 238.311 310.884 238.264C310.875 238.115 310.959 238.04 311.136 238.04C311.267 238.04 311.397 238.073 311.528 238.138C311.668 238.194 311.71 238.236 311.654 238.264C311.747 238.507 311.794 238.698 311.794 238.838C311.794 238.959 311.766 239.057 311.71 239.132C311.654 239.197 311.575 239.258 311.472 239.314ZM316.634 246.986C316.195 246.986 315.812 246.837 315.486 246.538C315.168 246.239 314.926 245.852 314.758 245.376C314.599 244.9 314.52 244.405 314.52 243.892C314.52 242.996 314.706 242.24 315.08 241.624C315.462 241.008 316.041 240.7 316.816 240.7C317.282 240.7 317.688 240.784 318.034 240.952C318.388 241.111 318.85 241.381 319.42 241.764L319.784 242.016C319.737 241.708 319.667 241.353 319.574 240.952C319.48 240.551 319.42 240.275 319.392 240.126C319.233 239.398 319.116 238.857 319.042 238.502C318.976 238.138 318.944 237.816 318.944 237.536C318.944 237.041 319.084 236.794 319.364 236.794C319.466 237.018 319.588 237.499 319.728 238.236C319.868 238.964 320.045 239.963 320.26 241.232C320.484 242.576 320.68 243.673 320.848 244.522C321.016 245.371 321.156 245.903 321.268 246.118C321.268 246.333 321.109 246.44 320.792 246.44C320.549 246.44 320.381 246.3 320.288 246.02C320.204 245.74 320.152 245.25 320.134 244.55H320.022C319.63 245.259 319.121 245.843 318.496 246.3C317.87 246.757 317.25 246.986 316.634 246.986ZM316.816 246.3C317.198 246.3 317.609 246.141 318.048 245.824C318.496 245.497 318.874 245.105 319.182 244.648C319.49 244.181 319.644 243.761 319.644 243.388V242.968C318.682 241.96 317.796 241.456 316.984 241.456C316.414 241.456 315.976 241.666 315.668 242.086C315.36 242.497 315.206 243.038 315.206 243.71L315.22 244.004C315.276 244.713 315.434 245.273 315.696 245.684C315.957 246.095 316.33 246.3 316.816 246.3ZM326.245 247C325.648 247 325.097 246.883 324.593 246.65C324.089 246.417 323.688 246.085 323.389 245.656C323.09 245.227 322.941 244.732 322.941 244.172C322.941 243.547 323.058 242.963 323.291 242.422C323.524 241.871 323.865 241.433 324.313 241.106C324.77 240.77 325.302 240.602 325.909 240.602C326.544 240.602 327.024 240.807 327.351 241.218C327.678 241.619 327.832 242.128 327.813 242.744C327.813 243.295 327.594 243.715 327.155 244.004C326.726 244.293 326.175 244.438 325.503 244.438C325.4 244.438 325.246 244.429 325.041 244.41C324.705 244.373 324.467 244.321 324.327 244.256C324.187 244.191 324.117 244.06 324.117 243.864C324.117 243.799 324.136 243.752 324.173 243.724C324.21 243.687 324.285 243.668 324.397 243.668C324.518 243.668 324.733 243.696 325.041 243.752C325.34 243.808 325.606 243.836 325.839 243.836C326.698 243.836 327.127 243.463 327.127 242.716C327.127 242.268 327.043 241.913 326.875 241.652C326.716 241.391 326.432 241.26 326.021 241.26C325.573 241.26 325.172 241.381 324.817 241.624C324.462 241.857 324.187 242.165 323.991 242.548C323.804 242.931 323.711 243.337 323.711 243.766C323.711 244.503 323.916 245.11 324.327 245.586C324.738 246.053 325.372 246.286 326.231 246.286C326.334 246.286 326.506 246.277 326.749 246.258C326.852 246.249 326.978 246.221 327.127 246.174C327.276 246.127 327.384 246.095 327.449 246.076C327.85 245.936 328.144 245.866 328.331 245.866C328.471 245.866 328.578 245.903 328.653 245.978C328.42 246.333 328.07 246.594 327.603 246.762C327.146 246.921 326.693 247 326.245 247ZM331.288 247C330.906 246.253 330.602 245.376 330.378 244.368C330.164 243.36 330.056 242.487 330.056 241.75C330.056 241.461 330.122 241.274 330.252 241.19C330.327 241.143 330.383 241.12 330.42 241.12C330.486 241.12 330.532 241.171 330.56 241.274C330.598 241.377 330.635 241.563 330.672 241.834L330.742 242.338C330.845 241.834 331.041 241.437 331.33 241.148C331.629 240.849 331.993 240.7 332.422 240.7C332.898 240.7 333.253 240.793 333.486 240.98C333.72 241.157 333.836 241.456 333.836 241.876C333.37 241.652 332.945 241.54 332.562 241.54C332.198 241.54 331.886 241.638 331.624 241.834C331.363 242.03 331.181 242.319 331.078 242.702C330.994 242.963 330.952 243.211 330.952 243.444C330.952 243.696 330.985 243.934 331.05 244.158C331.125 244.373 331.237 244.639 331.386 244.956C331.526 245.283 331.634 245.563 331.708 245.796C331.792 246.029 331.839 246.281 331.848 246.552C331.848 246.711 331.792 246.827 331.68 246.902C331.568 246.967 331.438 247 331.288 247ZM285.124 261.014C284.032 261.014 283.183 260.767 282.576 260.272C281.979 259.768 281.68 258.993 281.68 257.948C281.68 257.416 281.811 256.912 282.072 256.436C282.343 255.951 282.702 255.563 283.15 255.274C283.608 254.975 284.098 254.826 284.62 254.826C285.152 254.826 285.605 254.943 285.978 255.176C286.352 255.4 286.538 255.727 286.538 256.156C286.538 256.455 286.482 256.669 286.37 256.8C286.268 256.921 286.151 256.982 286.02 256.982C286.02 256.534 285.899 256.17 285.656 255.89C285.414 255.61 285.068 255.47 284.62 255.47C284.172 255.47 283.785 255.591 283.458 255.834C283.132 256.067 282.88 256.38 282.702 256.772C282.534 257.155 282.45 257.556 282.45 257.976C282.45 258.863 282.749 259.465 283.346 259.782C283.953 260.099 284.751 260.258 285.74 260.258C286.076 260.258 286.515 260.239 287.056 260.202C287.075 260.202 287.117 260.221 287.182 260.258C287.248 260.295 287.299 260.319 287.336 260.328V260.412C287.336 260.683 287.098 260.851 286.622 260.916C286.146 260.981 285.647 261.014 285.124 261.014ZM291.639 261.014C291.089 261.014 290.589 260.893 290.141 260.65C289.703 260.398 289.357 260.053 289.105 259.614C288.863 259.166 288.741 258.657 288.741 258.088C288.741 257.155 289.082 256.459 289.763 256.002C290.454 255.545 291.299 255.316 292.297 255.316C292.755 255.316 293.179 255.428 293.571 255.652C293.973 255.876 294.295 256.198 294.537 256.618C294.78 257.038 294.901 257.523 294.901 258.074C294.901 258.671 294.747 259.194 294.439 259.642C294.131 260.081 293.725 260.421 293.221 260.664C292.727 260.897 292.199 261.014 291.639 261.014ZM291.485 260.216C292.353 260.216 293.011 260.02 293.459 259.628C293.907 259.236 294.131 258.662 294.131 257.906C294.131 257.393 293.954 256.949 293.599 256.576C293.254 256.203 292.769 256.016 292.143 256.016C291.723 256.016 291.299 256.095 290.869 256.254C290.44 256.413 290.085 256.651 289.805 256.968C289.525 257.285 289.385 257.668 289.385 258.116C289.385 258.489 289.479 258.839 289.665 259.166C289.852 259.483 290.104 259.74 290.421 259.936C290.748 260.123 291.103 260.216 291.485 260.216ZM305.941 261.014C305.801 261.014 305.717 260.977 305.689 260.902C305.661 260.818 305.647 260.692 305.647 260.524C305.656 260.459 305.661 260.384 305.661 260.3C305.661 260.207 305.665 260.137 305.675 260.09C305.731 259.642 305.759 259.217 305.759 258.816C305.759 257.929 305.609 257.239 305.311 256.744C305.012 256.24 304.541 255.988 303.897 255.988C303.542 255.988 303.187 256.077 302.833 256.254C302.487 256.431 302.203 256.651 301.979 256.912C301.764 257.173 301.657 257.411 301.657 257.626C301.703 257.897 301.787 258.228 301.909 258.62C301.918 258.667 301.955 258.811 302.021 259.054C302.095 259.297 302.133 259.516 302.133 259.712L302.147 259.978C302.147 260.127 302.072 260.202 301.923 260.202C301.736 260.202 301.582 260.081 301.461 259.838C301.349 259.595 301.223 259.217 301.083 258.704C300.943 258.2 300.807 257.785 300.677 257.458C300.546 257.131 300.369 256.851 300.145 256.618C299.921 256.385 299.636 256.268 299.291 256.268C298.815 256.268 298.441 256.431 298.171 256.758C297.909 257.085 297.779 257.486 297.779 257.962C297.779 258.279 297.807 258.699 297.863 259.222C297.909 259.614 297.933 259.95 297.933 260.23C297.933 260.398 297.914 260.524 297.877 260.608C297.839 260.692 297.751 260.734 297.611 260.734C297.424 260.734 297.293 260.673 297.219 260.552C297.144 260.421 297.107 260.225 297.107 259.964C297.107 259.451 297.079 258.83 297.023 258.102C297.013 258.009 296.995 257.771 296.967 257.388C296.939 256.996 296.934 256.604 296.953 256.212L296.967 255.75C297.023 255.694 297.088 255.666 297.163 255.666C297.265 255.666 297.349 255.731 297.415 255.862C297.489 255.983 297.527 256.17 297.527 256.422C297.667 256.179 297.872 255.96 298.143 255.764C298.413 255.568 298.698 255.47 298.997 255.47C299.51 255.47 299.935 255.577 300.271 255.792C300.616 255.997 300.929 256.333 301.209 256.8C301.47 256.324 301.862 255.918 302.385 255.582C302.917 255.246 303.463 255.078 304.023 255.078C304.601 255.078 305.082 255.297 305.465 255.736C305.857 256.175 306.141 256.702 306.319 257.318C306.505 257.934 306.599 258.503 306.599 259.026C306.599 259.493 306.557 259.941 306.473 260.37C306.398 260.799 306.221 261.014 305.941 261.014ZM310.216 265.984C310.029 265.984 309.805 265.485 309.544 264.486C309.292 263.487 309.063 262.377 308.858 261.154C308.662 259.941 308.564 259.175 308.564 258.858C308.564 257.915 308.881 257.229 309.516 256.8C310.15 256.361 310.967 256.142 311.966 256.142C312.498 256.142 313.002 256.254 313.478 256.478C313.954 256.693 314.336 257.005 314.626 257.416C314.915 257.817 315.06 258.284 315.06 258.816C315.06 259.479 314.826 259.945 314.36 260.216C313.902 260.487 313.324 260.622 312.624 260.622C311.896 260.622 311.275 260.501 310.762 260.258C310.258 260.006 310.006 259.665 310.006 259.236L310.02 259.096C310.085 259.021 310.155 258.984 310.23 258.984C310.295 258.984 310.365 259.012 310.44 259.068C310.524 259.115 310.612 259.171 310.706 259.236C310.995 259.451 311.28 259.623 311.56 259.754C311.849 259.885 312.208 259.95 312.638 259.95C313.226 259.95 313.641 259.847 313.884 259.642C314.136 259.427 314.262 259.091 314.262 258.634C314.262 258.298 314.15 257.999 313.926 257.738C313.702 257.477 313.412 257.276 313.058 257.136C312.703 256.996 312.339 256.926 311.966 256.926C311.098 256.926 310.444 257.113 310.006 257.486C309.567 257.85 309.371 258.461 309.418 259.32C309.502 260.776 309.632 261.999 309.81 262.988C309.996 263.977 310.318 264.817 310.776 265.508L310.79 265.536C310.79 265.555 310.766 265.573 310.72 265.592C310.682 265.62 310.654 265.643 310.636 265.662C310.524 265.839 310.384 265.947 310.216 265.984ZM319.917 261.014C319.366 261.014 318.867 260.893 318.419 260.65C317.98 260.398 317.635 260.053 317.383 259.614C317.14 259.166 317.019 258.657 317.019 258.088C317.019 257.155 317.36 256.459 318.041 256.002C318.732 255.545 319.576 255.316 320.575 255.316C321.032 255.316 321.457 255.428 321.849 255.652C322.25 255.876 322.572 256.198 322.815 256.618C323.058 257.038 323.179 257.523 323.179 258.074C323.179 258.671 323.025 259.194 322.717 259.642C322.409 260.081 322.003 260.421 321.499 260.664C321.004 260.897 320.477 261.014 319.917 261.014ZM319.763 260.216C320.631 260.216 321.289 260.02 321.737 259.628C322.185 259.236 322.409 258.662 322.409 257.906C322.409 257.393 322.232 256.949 321.877 256.576C321.532 256.203 321.046 256.016 320.421 256.016C320.001 256.016 319.576 256.095 319.147 256.254C318.718 256.413 318.363 256.651 318.083 256.968C317.803 257.285 317.663 257.668 317.663 258.116C317.663 258.489 317.756 258.839 317.943 259.166C318.13 259.483 318.382 259.74 318.699 259.936C319.026 260.123 319.38 260.216 319.763 260.216ZM326.462 261.056C326.332 261.093 326.257 261.112 326.238 261.112C326.164 261.112 326.084 261.075 326 261C325.692 260.543 325.468 259.745 325.328 258.606C325.198 257.467 325.132 256.487 325.132 255.666C325.132 255.535 325.226 255.47 325.412 255.47C325.692 255.47 325.832 255.624 325.832 255.932C325.832 256.016 325.828 256.086 325.818 256.142C325.902 255.946 326.061 255.745 326.294 255.54C326.528 255.335 326.798 255.162 327.106 255.022C327.414 254.882 327.727 254.812 328.044 254.812C329.043 254.812 329.771 255.255 330.228 256.142C330.686 257.019 330.914 258.111 330.914 259.418C330.914 259.866 330.868 260.225 330.774 260.496C330.681 260.757 330.555 260.888 330.396 260.888C330.228 260.888 330.144 260.837 330.144 260.734C330.21 260.239 330.242 259.754 330.242 259.278C330.242 258.074 330.032 257.164 329.612 256.548C329.192 255.923 328.637 255.61 327.946 255.61C327.61 255.61 327.284 255.694 326.966 255.862C326.658 256.03 326.406 256.263 326.21 256.562C326.024 256.861 325.93 257.201 325.93 257.584C325.93 258.013 325.954 258.387 326 258.704C326.047 259.021 326.122 259.404 326.224 259.852C326.336 260.291 326.416 260.692 326.462 261.056ZM336.181 261C335.583 261 335.033 260.883 334.529 260.65C334.025 260.417 333.623 260.085 333.325 259.656C333.026 259.227 332.877 258.732 332.877 258.172C332.877 257.547 332.993 256.963 333.227 256.422C333.46 255.871 333.801 255.433 334.249 255.106C334.706 254.77 335.238 254.602 335.845 254.602C336.479 254.602 336.96 254.807 337.287 255.218C337.613 255.619 337.767 256.128 337.749 256.744C337.749 257.295 337.529 257.715 337.091 258.004C336.661 258.293 336.111 258.438 335.439 258.438C335.336 258.438 335.182 258.429 334.977 258.41C334.641 258.373 334.403 258.321 334.263 258.256C334.123 258.191 334.053 258.06 334.053 257.864C334.053 257.799 334.071 257.752 334.109 257.724C334.146 257.687 334.221 257.668 334.333 257.668C334.454 257.668 334.669 257.696 334.977 257.752C335.275 257.808 335.541 257.836 335.775 257.836C336.633 257.836 337.063 257.463 337.063 256.716C337.063 256.268 336.979 255.913 336.811 255.652C336.652 255.391 336.367 255.26 335.957 255.26C335.509 255.26 335.107 255.381 334.753 255.624C334.398 255.857 334.123 256.165 333.927 256.548C333.74 256.931 333.647 257.337 333.647 257.766C333.647 258.503 333.852 259.11 334.263 259.586C334.673 260.053 335.308 260.286 336.167 260.286C336.269 260.286 336.442 260.277 336.685 260.258C336.787 260.249 336.913 260.221 337.063 260.174C337.212 260.127 337.319 260.095 337.385 260.076C337.786 259.936 338.08 259.866 338.267 259.866C338.407 259.866 338.514 259.903 338.589 259.978C338.355 260.333 338.005 260.594 337.539 260.762C337.081 260.921 336.629 261 336.181 261ZM341.322 261.056C341.191 261.093 341.117 261.112 341.098 261.112C341.023 261.112 340.944 261.075 340.86 261C340.552 260.543 340.328 259.745 340.188 258.606C340.057 257.467 339.992 256.487 339.992 255.666C339.992 255.535 340.085 255.47 340.272 255.47C340.552 255.47 340.692 255.624 340.692 255.932C340.692 256.016 340.687 256.086 340.678 256.142C340.762 255.946 340.921 255.745 341.154 255.54C341.387 255.335 341.658 255.162 341.966 255.022C342.274 254.882 342.587 254.812 342.904 254.812C343.903 254.812 344.631 255.255 345.088 256.142C345.545 257.019 345.774 258.111 345.774 259.418C345.774 259.866 345.727 260.225 345.634 260.496C345.541 260.757 345.415 260.888 345.256 260.888C345.088 260.888 345.004 260.837 345.004 260.734C345.069 260.239 345.102 259.754 345.102 259.278C345.102 258.074 344.892 257.164 344.472 256.548C344.052 255.923 343.497 255.61 342.806 255.61C342.47 255.61 342.143 255.694 341.826 255.862C341.518 256.03 341.266 256.263 341.07 256.562C340.883 256.861 340.79 257.201 340.79 257.584C340.79 258.013 340.813 258.387 340.86 258.704C340.907 259.021 340.981 259.404 341.084 259.852C341.196 260.291 341.275 260.692 341.322 261.056ZM349.99 261C349.897 261.019 349.836 261.028 349.808 261.028C349.519 261.028 349.318 260.813 349.206 260.384C349.104 259.955 349.052 259.353 349.052 258.578C349.052 258.261 349.062 257.766 349.08 257.094C349.099 256.683 349.108 256.375 349.108 256.17C347.96 256.17 347.386 256.039 347.386 255.778C347.386 255.694 347.396 255.629 347.414 255.582C347.442 255.535 347.498 255.512 347.582 255.512L349.108 255.414C349.099 254.957 349.076 254.457 349.038 253.916C349.001 253.431 348.978 252.983 348.968 252.572C348.968 252.469 349.01 252.399 349.094 252.362C349.178 252.315 349.267 252.292 349.36 252.292C349.472 252.292 349.566 252.353 349.64 252.474C349.715 252.586 349.752 252.703 349.752 252.824L349.85 255.386L351.012 255.442C351.19 255.423 351.339 255.456 351.46 255.54C351.591 255.624 351.661 255.764 351.67 255.96C351.474 256.044 351.26 256.095 351.026 256.114C350.793 256.133 350.401 256.142 349.85 256.142C349.85 257.01 349.892 258.438 349.976 260.426C349.976 260.631 349.976 260.776 349.976 260.86C349.986 260.935 349.99 260.981 349.99 261Z" fill="white"/>
<path d="M34.1355 170C34.0422 170.019 33.9815 170.028 33.9535 170.028C33.6642 170.028 33.4635 169.813 33.3515 169.384C33.2488 168.955 33.1975 168.353 33.1975 167.578C33.1975 167.261 33.2068 166.766 33.2255 166.094C33.2442 165.683 33.2535 165.375 33.2535 165.17C32.1055 165.17 31.5315 165.039 31.5315 164.778C31.5315 164.694 31.5408 164.629 31.5595 164.582C31.5875 164.535 31.6435 164.512 31.7275 164.512L33.2535 164.414C33.2442 163.957 33.2208 163.457 33.1835 162.916C33.1462 162.431 33.1228 161.983 33.1135 161.572C33.1135 161.469 33.1555 161.399 33.2395 161.362C33.3235 161.315 33.4122 161.292 33.5055 161.292C33.6175 161.292 33.7108 161.353 33.7855 161.474C33.8602 161.586 33.8975 161.703 33.8975 161.824L33.9955 164.386L35.1575 164.442C35.3348 164.423 35.4842 164.456 35.6055 164.54C35.7362 164.624 35.8062 164.764 35.8155 164.96C35.6195 165.044 35.4048 165.095 35.1715 165.114C34.9382 165.133 34.5462 165.142 33.9955 165.142C33.9955 166.01 34.0375 167.438 34.1215 169.426C34.1215 169.631 34.1215 169.776 34.1215 169.86C34.1308 169.935 34.1355 169.981 34.1355 170ZM41.0226 170C40.0519 170 39.2073 169.832 38.4886 169.496C37.7793 169.151 37.4246 168.549 37.4246 167.69C37.4246 167.382 37.5179 167.083 37.7046 166.794C37.8913 166.505 38.1666 166.271 38.5306 166.094C38.8946 165.907 39.3379 165.814 39.8606 165.814C40.2619 165.814 40.6026 165.833 40.8826 165.87C41.1626 165.907 41.4846 166.01 41.8486 166.178C42.2126 166.346 42.5906 166.612 42.9826 166.976C42.8333 166.332 42.6093 165.767 42.3106 165.282C42.0119 164.797 41.6759 164.423 41.3026 164.162C40.9386 163.891 40.5793 163.756 40.2246 163.756C40.0566 163.756 39.8979 163.789 39.7486 163.854C39.6086 163.91 39.4359 163.994 39.2306 164.106C38.9973 164.255 38.8246 164.33 38.7126 164.33C38.6659 164.33 38.6239 164.316 38.5866 164.288C38.5586 164.251 38.5446 164.209 38.5446 164.162C38.5446 163.789 38.7079 163.499 39.0346 163.294C39.3706 163.089 39.7766 162.995 40.2526 163.014C40.9059 163.051 41.5033 163.331 42.0446 163.854C42.5859 164.367 43.0106 165.007 43.3186 165.772C43.6359 166.537 43.7946 167.289 43.7946 168.026C43.7946 168.147 43.7853 168.32 43.7666 168.544L43.3186 168.516C42.9639 167.797 42.5066 167.289 41.9466 166.99C41.3959 166.682 40.8406 166.528 40.2806 166.528C39.5619 166.528 39.0486 166.635 38.7406 166.85C38.4326 167.065 38.2786 167.377 38.2786 167.788C38.2786 168.217 38.4933 168.563 38.9226 168.824C39.3519 169.085 39.9026 169.216 40.5746 169.216C40.9479 169.216 41.2466 169.197 41.4706 169.16C41.6946 169.113 41.9279 169.053 42.1706 168.978C42.3666 168.913 42.5393 168.866 42.6886 168.838C42.8379 168.81 43.0293 168.796 43.2626 168.796C43.5239 168.796 43.6873 168.815 43.7526 168.852C43.8273 168.889 43.8646 168.973 43.8646 169.104C43.8646 169.197 43.6733 169.314 43.2906 169.454C42.9079 169.594 42.4786 169.72 42.0026 169.832C41.5266 169.944 41.1999 170 41.0226 170ZM48.1772 176.832C47.3932 176.832 46.7352 176.608 46.2032 176.16C45.6805 175.721 45.3678 174.979 45.2652 173.934C45.2558 173.775 45.2792 173.654 45.3352 173.57C45.4005 173.486 45.4845 173.444 45.5872 173.444C45.6992 173.444 45.7972 173.486 45.8812 173.57C45.9652 173.663 46.0025 173.785 45.9932 173.934C45.9932 174.55 46.2032 175.035 46.6232 175.39C47.0525 175.754 47.5985 175.936 48.2612 175.936C48.6438 175.936 48.9798 175.796 49.2692 175.516C49.5678 175.236 49.7965 174.844 49.9552 174.34C50.1138 173.845 50.1932 173.276 50.1932 172.632C50.1932 171.503 50.2072 170.406 50.2352 169.342L50.2492 168.628C49.8852 169.011 49.5538 169.291 49.2552 169.468C48.9658 169.645 48.6158 169.734 48.2052 169.734C47.4865 169.734 46.9545 169.543 46.6092 169.16C46.2732 168.768 46.1052 168.171 46.1052 167.368C46.1052 166.911 46.2265 166.435 46.4692 165.94C46.7212 165.436 47.0618 165.016 47.4912 164.68C47.9298 164.344 48.4245 164.176 48.9752 164.176C49.1618 164.176 49.3345 164.195 49.4932 164.232C50.0905 164.363 50.4918 164.918 50.6972 165.898C50.9025 166.878 51.0052 168.147 51.0052 169.706C51.0052 170.135 50.9958 170.705 50.9772 171.414L50.9632 172.744C50.9632 173.276 50.8792 173.855 50.7112 174.48C50.5432 175.115 50.2492 175.665 49.8292 176.132C49.4092 176.599 48.8585 176.832 48.1772 176.832ZM47.9952 168.81C48.6858 168.81 49.2085 168.647 49.5632 168.32C49.9178 167.984 50.0952 167.494 50.0952 166.85C50.0952 166.766 50.0858 166.621 50.0672 166.416C50.0205 165.987 49.9085 165.651 49.7312 165.408C49.5632 165.156 49.2972 165.03 48.9332 165.03C48.5505 165.03 48.2005 165.165 47.8832 165.436C47.5658 165.707 47.3185 166.043 47.1412 166.444C46.9638 166.836 46.8752 167.205 46.8752 167.55C46.8752 167.895 46.9778 168.194 47.1832 168.446C47.3885 168.689 47.6592 168.81 47.9952 168.81ZM55.3199 176.832C54.5359 176.832 53.8779 176.608 53.3459 176.16C52.8232 175.721 52.5106 174.979 52.4079 173.934C52.3986 173.775 52.4219 173.654 52.4779 173.57C52.5432 173.486 52.6272 173.444 52.7299 173.444C52.8419 173.444 52.9399 173.486 53.0239 173.57C53.1079 173.663 53.1452 173.785 53.1359 173.934C53.1359 174.55 53.3459 175.035 53.7659 175.39C54.1952 175.754 54.7412 175.936 55.4039 175.936C55.7866 175.936 56.1226 175.796 56.4119 175.516C56.7106 175.236 56.9392 174.844 57.0979 174.34C57.2566 173.845 57.3359 173.276 57.3359 172.632C57.3359 171.503 57.3499 170.406 57.3779 169.342L57.3919 168.628C57.0279 169.011 56.6966 169.291 56.3979 169.468C56.1086 169.645 55.7586 169.734 55.3479 169.734C54.6292 169.734 54.0972 169.543 53.7519 169.16C53.4159 168.768 53.2479 168.171 53.2479 167.368C53.2479 166.911 53.3692 166.435 53.6119 165.94C53.8639 165.436 54.2046 165.016 54.6339 164.68C55.0726 164.344 55.5672 164.176 56.1179 164.176C56.3046 164.176 56.4772 164.195 56.6359 164.232C57.2332 164.363 57.6346 164.918 57.8399 165.898C58.0452 166.878 58.1479 168.147 58.1479 169.706C58.1479 170.135 58.1386 170.705 58.1199 171.414L58.1059 172.744C58.1059 173.276 58.0219 173.855 57.8539 174.48C57.6859 175.115 57.3919 175.665 56.9719 176.132C56.5519 176.599 56.0012 176.832 55.3199 176.832ZM55.1379 168.81C55.8286 168.81 56.3512 168.647 56.7059 168.32C57.0606 167.984 57.2379 167.494 57.2379 166.85C57.2379 166.766 57.2286 166.621 57.2099 166.416C57.1632 165.987 57.0512 165.651 56.8739 165.408C56.7059 165.156 56.4399 165.03 56.0759 165.03C55.6932 165.03 55.3432 165.165 55.0259 165.436C54.7086 165.707 54.4612 166.043 54.2839 166.444C54.1066 166.836 54.0179 167.205 54.0179 167.55C54.0179 167.895 54.1206 168.194 54.3259 168.446C54.5312 168.689 54.8019 168.81 55.1379 168.81ZM63.4146 170C62.8173 170 62.2666 169.883 61.7626 169.65C61.2586 169.417 60.8573 169.085 60.5586 168.656C60.26 168.227 60.1106 167.732 60.1106 167.172C60.1106 166.547 60.2273 165.963 60.4606 165.422C60.694 164.871 61.0346 164.433 61.4826 164.106C61.94 163.77 62.472 163.602 63.0786 163.602C63.7133 163.602 64.194 163.807 64.5206 164.218C64.8473 164.619 65.0013 165.128 64.9826 165.744C64.9826 166.295 64.7633 166.715 64.3246 167.004C63.8953 167.293 63.3446 167.438 62.6726 167.438C62.57 167.438 62.416 167.429 62.2106 167.41C61.8746 167.373 61.6366 167.321 61.4966 167.256C61.3566 167.191 61.2866 167.06 61.2866 166.864C61.2866 166.799 61.3053 166.752 61.3426 166.724C61.38 166.687 61.4546 166.668 61.5666 166.668C61.688 166.668 61.9026 166.696 62.2106 166.752C62.5093 166.808 62.7753 166.836 63.0086 166.836C63.8673 166.836 64.2966 166.463 64.2966 165.716C64.2966 165.268 64.2126 164.913 64.0446 164.652C63.886 164.391 63.6013 164.26 63.1906 164.26C62.7426 164.26 62.3413 164.381 61.9866 164.624C61.632 164.857 61.3566 165.165 61.1606 165.548C60.974 165.931 60.8806 166.337 60.8806 166.766C60.8806 167.503 61.086 168.11 61.4966 168.586C61.9073 169.053 62.542 169.286 63.4006 169.286C63.5033 169.286 63.676 169.277 63.9186 169.258C64.0213 169.249 64.1473 169.221 64.2966 169.174C64.446 169.127 64.5533 169.095 64.6186 169.076C65.02 168.936 65.314 168.866 65.5006 168.866C65.6406 168.866 65.748 168.903 65.8226 168.978C65.5893 169.333 65.2393 169.594 64.7726 169.762C64.3153 169.921 63.8626 170 63.4146 170ZM68.458 170C68.0753 169.253 67.772 168.376 67.548 167.368C67.3333 166.36 67.226 165.487 67.226 164.75C67.226 164.461 67.2913 164.274 67.422 164.19C67.4967 164.143 67.5527 164.12 67.59 164.12C67.6553 164.12 67.702 164.171 67.73 164.274C67.7673 164.377 67.8047 164.563 67.842 164.834L67.912 165.338C68.0147 164.834 68.2107 164.437 68.5 164.148C68.7987 163.849 69.1627 163.7 69.592 163.7C70.068 163.7 70.4227 163.793 70.656 163.98C70.8893 164.157 71.006 164.456 71.006 164.876C70.5393 164.652 70.1147 164.54 69.732 164.54C69.368 164.54 69.0553 164.638 68.794 164.834C68.5327 165.03 68.3507 165.319 68.248 165.702C68.164 165.963 68.122 166.211 68.122 166.444C68.122 166.696 68.1547 166.934 68.22 167.158C68.2947 167.373 68.4067 167.639 68.556 167.956C68.696 168.283 68.8033 168.563 68.878 168.796C68.962 169.029 69.0087 169.281 69.018 169.552C69.018 169.711 68.962 169.827 68.85 169.902C68.738 169.967 68.6073 170 68.458 170ZM4.24494 184.014C3.15294 184.014 2.3036 183.767 1.69694 183.272C1.0996 182.768 0.800936 181.993 0.800936 180.948C0.800936 180.416 0.931603 179.912 1.19294 179.436C1.4636 178.951 1.82294 178.563 2.27094 178.274C2.72827 177.975 3.21827 177.826 3.74094 177.826C4.27294 177.826 4.7256 177.943 5.09894 178.176C5.47227 178.4 5.65894 178.727 5.65894 179.156C5.65894 179.455 5.60294 179.669 5.49094 179.8C5.38827 179.921 5.2716 179.982 5.14094 179.982C5.14094 179.534 5.0196 179.17 4.77694 178.89C4.53427 178.61 4.18894 178.47 3.74094 178.47C3.29294 178.47 2.9056 178.591 2.57894 178.834C2.25227 179.067 2.00027 179.38 1.82294 179.772C1.65494 180.155 1.57094 180.556 1.57094 180.976C1.57094 181.863 1.8696 182.465 2.46694 182.782C3.0736 183.099 3.8716 183.258 4.86094 183.258C5.19694 183.258 5.6356 183.239 6.17694 183.202C6.1956 183.202 6.2376 183.221 6.30294 183.258C6.36827 183.295 6.4196 183.319 6.45694 183.328V183.412C6.45694 183.683 6.21894 183.851 5.74294 183.916C5.26694 183.981 4.7676 184.014 4.24494 184.014ZM10.7596 184.014C10.209 184.014 9.70964 183.893 9.26164 183.65C8.82297 183.398 8.47764 183.053 8.22564 182.614C7.98297 182.166 7.86164 181.657 7.86164 181.088C7.86164 180.155 8.20231 179.459 8.88364 179.002C9.57431 178.545 10.419 178.316 11.4176 178.316C11.875 178.316 12.2996 178.428 12.6916 178.652C13.093 178.876 13.415 179.198 13.6576 179.618C13.9003 180.038 14.0216 180.523 14.0216 181.074C14.0216 181.671 13.8676 182.194 13.5596 182.642C13.2516 183.081 12.8456 183.421 12.3416 183.664C11.847 183.897 11.3196 184.014 10.7596 184.014ZM10.6056 183.216C11.4736 183.216 12.1316 183.02 12.5796 182.628C13.0276 182.236 13.2516 181.662 13.2516 180.906C13.2516 180.393 13.0743 179.949 12.7196 179.576C12.3743 179.203 11.889 179.016 11.2636 179.016C10.8436 179.016 10.419 179.095 9.98964 179.254C9.56031 179.413 9.20564 179.651 8.92564 179.968C8.64564 180.285 8.50564 180.668 8.50564 181.116C8.50564 181.489 8.59897 181.839 8.78564 182.166C8.97231 182.483 9.22431 182.74 9.54164 182.936C9.86831 183.123 10.223 183.216 10.6056 183.216ZM25.0611 184.014C24.9211 184.014 24.8371 183.977 24.8091 183.902C24.7811 183.818 24.7671 183.692 24.7671 183.524C24.7764 183.459 24.7811 183.384 24.7811 183.3C24.7811 183.207 24.7857 183.137 24.7951 183.09C24.8511 182.642 24.8791 182.217 24.8791 181.816C24.8791 180.929 24.7297 180.239 24.4311 179.744C24.1324 179.24 23.6611 178.988 23.0171 178.988C22.6624 178.988 22.3077 179.077 21.9531 179.254C21.6077 179.431 21.3231 179.651 21.0991 179.912C20.8844 180.173 20.7771 180.411 20.7771 180.626C20.8237 180.897 20.9077 181.228 21.0291 181.62C21.0384 181.667 21.0757 181.811 21.1411 182.054C21.2157 182.297 21.2531 182.516 21.2531 182.712L21.2671 182.978C21.2671 183.127 21.1924 183.202 21.0431 183.202C20.8564 183.202 20.7024 183.081 20.5811 182.838C20.4691 182.595 20.3431 182.217 20.2031 181.704C20.0631 181.2 19.9277 180.785 19.7971 180.458C19.6664 180.131 19.4891 179.851 19.2651 179.618C19.0411 179.385 18.7564 179.268 18.4111 179.268C17.9351 179.268 17.5617 179.431 17.2911 179.758C17.0297 180.085 16.8991 180.486 16.8991 180.962C16.8991 181.279 16.9271 181.699 16.9831 182.222C17.0297 182.614 17.0531 182.95 17.0531 183.23C17.0531 183.398 17.0344 183.524 16.9971 183.608C16.9597 183.692 16.8711 183.734 16.7311 183.734C16.5444 183.734 16.4137 183.673 16.3391 183.552C16.2644 183.421 16.2271 183.225 16.2271 182.964C16.2271 182.451 16.1991 181.83 16.1431 181.102C16.1337 181.009 16.1151 180.771 16.0871 180.388C16.0591 179.996 16.0544 179.604 16.0731 179.212L16.0871 178.75C16.1431 178.694 16.2084 178.666 16.2831 178.666C16.3857 178.666 16.4697 178.731 16.5351 178.862C16.6097 178.983 16.6471 179.17 16.6471 179.422C16.7871 179.179 16.9924 178.96 17.2631 178.764C17.5337 178.568 17.8184 178.47 18.1171 178.47C18.6304 178.47 19.0551 178.577 19.3911 178.792C19.7364 178.997 20.0491 179.333 20.3291 179.8C20.5904 179.324 20.9824 178.918 21.5051 178.582C22.0371 178.246 22.5831 178.078 23.1431 178.078C23.7217 178.078 24.2024 178.297 24.5851 178.736C24.9771 179.175 25.2617 179.702 25.4391 180.318C25.6257 180.934 25.7191 181.503 25.7191 182.026C25.7191 182.493 25.6771 182.941 25.5931 183.37C25.5184 183.799 25.3411 184.014 25.0611 184.014ZM29.3362 188.984C29.1496 188.984 28.9256 188.485 28.6642 187.486C28.4122 186.487 28.1836 185.377 27.9782 184.154C27.7822 182.941 27.6842 182.175 27.6842 181.858C27.6842 180.915 28.0016 180.229 28.6362 179.8C29.2709 179.361 30.0876 179.142 31.0862 179.142C31.6182 179.142 32.1222 179.254 32.5982 179.478C33.0742 179.693 33.4569 180.005 33.7462 180.416C34.0356 180.817 34.1802 181.284 34.1802 181.816C34.1802 182.479 33.9469 182.945 33.4802 183.216C33.0229 183.487 32.4442 183.622 31.7442 183.622C31.0162 183.622 30.3956 183.501 29.8822 183.258C29.3782 183.006 29.1262 182.665 29.1262 182.236L29.1402 182.096C29.2056 182.021 29.2756 181.984 29.3502 181.984C29.4156 181.984 29.4856 182.012 29.5602 182.068C29.6442 182.115 29.7329 182.171 29.8262 182.236C30.1156 182.451 30.4002 182.623 30.6802 182.754C30.9696 182.885 31.3289 182.95 31.7582 182.95C32.3462 182.95 32.7616 182.847 33.0042 182.642C33.2562 182.427 33.3822 182.091 33.3822 181.634C33.3822 181.298 33.2702 180.999 33.0462 180.738C32.8222 180.477 32.5329 180.276 32.1782 180.136C31.8236 179.996 31.4596 179.926 31.0862 179.926C30.2182 179.926 29.5649 180.113 29.1262 180.486C28.6876 180.85 28.4916 181.461 28.5382 182.32C28.6222 183.776 28.7529 184.999 28.9302 185.988C29.1169 186.977 29.4389 187.817 29.8962 188.508L29.9102 188.536C29.9102 188.555 29.8869 188.573 29.8402 188.592C29.8029 188.62 29.7749 188.643 29.7562 188.662C29.6442 188.839 29.5042 188.947 29.3362 188.984ZM39.0375 184.014C38.4868 184.014 37.9875 183.893 37.5395 183.65C37.1008 183.398 36.7555 183.053 36.5035 182.614C36.2608 182.166 36.1395 181.657 36.1395 181.088C36.1395 180.155 36.4801 179.459 37.1615 179.002C37.8521 178.545 38.6968 178.316 39.6955 178.316C40.1528 178.316 40.5775 178.428 40.9695 178.652C41.3708 178.876 41.6928 179.198 41.9355 179.618C42.1781 180.038 42.2995 180.523 42.2995 181.074C42.2995 181.671 42.1455 182.194 41.8375 182.642C41.5295 183.081 41.1235 183.421 40.6195 183.664C40.1248 183.897 39.5975 184.014 39.0375 184.014ZM38.8835 183.216C39.7515 183.216 40.4095 183.02 40.8575 182.628C41.3055 182.236 41.5295 181.662 41.5295 180.906C41.5295 180.393 41.3521 179.949 40.9975 179.576C40.6521 179.203 40.1668 179.016 39.5415 179.016C39.1215 179.016 38.6968 179.095 38.2675 179.254C37.8381 179.413 37.4835 179.651 37.2035 179.968C36.9235 180.285 36.7835 180.668 36.7835 181.116C36.7835 181.489 36.8768 181.839 37.0635 182.166C37.2501 182.483 37.5021 182.74 37.8195 182.936C38.1461 183.123 38.5008 183.216 38.8835 183.216ZM45.5829 184.056C45.4522 184.093 45.3776 184.112 45.3589 184.112C45.2842 184.112 45.2049 184.075 45.1209 184C44.8129 183.543 44.5889 182.745 44.4489 181.606C44.3182 180.467 44.2529 179.487 44.2529 178.666C44.2529 178.535 44.3462 178.47 44.5329 178.47C44.8129 178.47 44.9529 178.624 44.9529 178.932C44.9529 179.016 44.9482 179.086 44.9389 179.142C45.0229 178.946 45.1816 178.745 45.4149 178.54C45.6482 178.335 45.9189 178.162 46.2269 178.022C46.5349 177.882 46.8476 177.812 47.1649 177.812C48.1636 177.812 48.8916 178.255 49.3489 179.142C49.8062 180.019 50.0349 181.111 50.0349 182.418C50.0349 182.866 49.9882 183.225 49.8949 183.496C49.8016 183.757 49.6756 183.888 49.5169 183.888C49.3489 183.888 49.2649 183.837 49.2649 183.734C49.3302 183.239 49.3629 182.754 49.3629 182.278C49.3629 181.074 49.1529 180.164 48.7329 179.548C48.3129 178.923 47.7576 178.61 47.0669 178.61C46.7309 178.61 46.4042 178.694 46.0869 178.862C45.7789 179.03 45.5269 179.263 45.3309 179.562C45.1442 179.861 45.0509 180.201 45.0509 180.584C45.0509 181.013 45.0742 181.387 45.1209 181.704C45.1676 182.021 45.2422 182.404 45.3449 182.852C45.4569 183.291 45.5362 183.692 45.5829 184.056ZM55.3012 184C54.7039 184 54.1532 183.883 53.6492 183.65C53.1452 183.417 52.7439 183.085 52.4452 182.656C52.1465 182.227 51.9972 181.732 51.9972 181.172C51.9972 180.547 52.1139 179.963 52.3472 179.422C52.5805 178.871 52.9212 178.433 53.3692 178.106C53.8265 177.77 54.3585 177.602 54.9652 177.602C55.5999 177.602 56.0805 177.807 56.4072 178.218C56.7339 178.619 56.8879 179.128 56.8692 179.744C56.8692 180.295 56.6499 180.715 56.2112 181.004C55.7819 181.293 55.2312 181.438 54.5592 181.438C54.4565 181.438 54.3025 181.429 54.0972 181.41C53.7612 181.373 53.5232 181.321 53.3832 181.256C53.2432 181.191 53.1732 181.06 53.1732 180.864C53.1732 180.799 53.1919 180.752 53.2292 180.724C53.2665 180.687 53.3412 180.668 53.4532 180.668C53.5745 180.668 53.7892 180.696 54.0972 180.752C54.3959 180.808 54.6619 180.836 54.8952 180.836C55.7539 180.836 56.1832 180.463 56.1832 179.716C56.1832 179.268 56.0992 178.913 55.9312 178.652C55.7725 178.391 55.4879 178.26 55.0772 178.26C54.6292 178.26 54.2279 178.381 53.8732 178.624C53.5185 178.857 53.2432 179.165 53.0472 179.548C52.8605 179.931 52.7672 180.337 52.7672 180.766C52.7672 181.503 52.9725 182.11 53.3832 182.586C53.7939 183.053 54.4285 183.286 55.2872 183.286C55.3899 183.286 55.5625 183.277 55.8052 183.258C55.9079 183.249 56.0339 183.221 56.1832 183.174C56.3325 183.127 56.4399 183.095 56.5052 183.076C56.9065 182.936 57.2005 182.866 57.3872 182.866C57.5272 182.866 57.6345 182.903 57.7092 182.978C57.4759 183.333 57.1259 183.594 56.6592 183.762C56.2019 183.921 55.7492 184 55.3012 184ZM60.4426 184.056C60.3119 184.093 60.2372 184.112 60.2186 184.112C60.1439 184.112 60.0646 184.075 59.9806 184C59.6726 183.543 59.4486 182.745 59.3086 181.606C59.1779 180.467 59.1126 179.487 59.1126 178.666C59.1126 178.535 59.2059 178.47 59.3926 178.47C59.6726 178.47 59.8126 178.624 59.8126 178.932C59.8126 179.016 59.8079 179.086 59.7986 179.142C59.8826 178.946 60.0412 178.745 60.2746 178.54C60.5079 178.335 60.7786 178.162 61.0866 178.022C61.3946 177.882 61.7072 177.812 62.0246 177.812C63.0232 177.812 63.7512 178.255 64.2086 179.142C64.6659 180.019 64.8946 181.111 64.8946 182.418C64.8946 182.866 64.8479 183.225 64.7546 183.496C64.6612 183.757 64.5352 183.888 64.3766 183.888C64.2086 183.888 64.1246 183.837 64.1246 183.734C64.1899 183.239 64.2226 182.754 64.2226 182.278C64.2226 181.074 64.0126 180.164 63.5926 179.548C63.1726 178.923 62.6172 178.61 61.9266 178.61C61.5906 178.61 61.2639 178.694 60.9466 178.862C60.6386 179.03 60.3866 179.263 60.1906 179.562C60.0039 179.861 59.9106 180.201 59.9106 180.584C59.9106 181.013 59.9339 181.387 59.9806 181.704C60.0272 182.021 60.1019 182.404 60.2046 182.852C60.3166 183.291 60.3959 183.692 60.4426 184.056ZM69.1109 184C69.0175 184.019 68.9569 184.028 68.9289 184.028C68.6395 184.028 68.4389 183.813 68.3269 183.384C68.2242 182.955 68.1729 182.353 68.1729 181.578C68.1729 181.261 68.1822 180.766 68.2009 180.094C68.2195 179.683 68.2289 179.375 68.2289 179.17C67.0809 179.17 66.5069 179.039 66.5069 178.778C66.5069 178.694 66.5162 178.629 66.5349 178.582C66.5629 178.535 66.6189 178.512 66.7029 178.512L68.2289 178.414C68.2195 177.957 68.1962 177.457 68.1589 176.916C68.1215 176.431 68.0982 175.983 68.0889 175.572C68.0889 175.469 68.1309 175.399 68.2149 175.362C68.2989 175.315 68.3875 175.292 68.4809 175.292C68.5929 175.292 68.6862 175.353 68.7609 175.474C68.8355 175.586 68.8729 175.703 68.8729 175.824L68.9709 178.386L70.1329 178.442C70.3102 178.423 70.4595 178.456 70.5809 178.54C70.7115 178.624 70.7815 178.764 70.7909 178.96C70.5949 179.044 70.3802 179.095 70.1469 179.114C69.9135 179.133 69.5215 179.142 68.9709 179.142C68.9709 180.01 69.0129 181.438 69.0969 183.426C69.0969 183.631 69.0969 183.776 69.0969 183.86C69.1062 183.935 69.1109 183.981 69.1109 184Z" fill="white"/>
<path d="M304.522 189.372C305.764 199.314 307.798 208.993 310.798 218.568C312.023 222.475 314.185 226.848 314.185 230.997" stroke="white" stroke-opacity="0.75" stroke-linecap="round"/>
<path d="M314.185 230.626C315.599 228.759 316.692 226.685 318.108 224.865C318.796 223.98 319.366 221.345 320.131 220.963" stroke="white" stroke-opacity="0.75" stroke-linecap="round"/>
<path d="M313.97 230.8C312.998 230.397 312.188 229.777 311.206 229.385C309.411 228.666 307.292 228.33 305.611 227.362C305.132 227.086 304.54 227.075 304.061 226.756" stroke="white" stroke-opacity="0.75" stroke-linecap="round"/>
</svg>
