<svg width="151" height="313" viewBox="0 0 151 313" fill="none" xmlns="http://www.w3.org/2000/svg">
<rect x="0.5" y="0.5" width="150" height="312" rx="19.5" stroke="white" stroke-opacity="0.5"/>
<mask id="path-2-inside-1_5_35" fill="white">
<path fill-rule="evenodd" clip-rule="evenodd" d="M26 5C14.9543 5 6 13.9543 6 25V288C6 299.046 14.9543 308 26 308H125C136.046 308 145 299.046 145 288V25C145 13.9543 136.046 5 125 5H106L103.515 14.9403C102.625 18.5016 99.4247 21 95.7538 21H52.2462C48.5753 21 45.3754 18.5016 44.4851 14.9403L42 5H26Z"/>
</mask>
<path d="M106 5V4H105.219L105.03 4.75746L106 5ZM103.515 14.9403L104.485 15.1828L104.485 15.1828L103.515 14.9403ZM44.4851 14.9403L43.5149 15.1828L43.5149 15.1828L44.4851 14.9403ZM42 5L42.9701 4.75746L42.7808 4H42V5ZM7 25C7 14.5066 15.5066 6 26 6V4C14.402 4 5 13.402 5 25H7ZM7 288V25H5V288H7ZM26 307C15.5066 307 7 298.493 7 288H5C5 299.598 14.402 309 26 309V307ZM125 307H26V309H125V307ZM144 288C144 298.493 135.493 307 125 307V309C136.598 309 146 299.598 146 288H144ZM144 25V288H146V25H144ZM125 6C135.493 6 144 14.5066 144 25H146C146 13.402 136.598 4 125 4V6ZM106 6H125V4H106V6ZM105.03 4.75746L102.545 14.6978L104.485 15.1828L106.97 5.24254L105.03 4.75746ZM102.545 14.6978C101.766 17.8139 98.9659 20 95.7538 20V22C99.8836 22 103.483 19.1893 104.485 15.1828L102.545 14.6978ZM95.7538 20H52.2462V22H95.7538V20ZM52.2462 20C49.0341 20 46.2343 17.8139 45.4552 14.6977L43.5149 15.1828C44.5166 19.1893 48.1164 22 52.2462 22V20ZM45.4552 14.6977L42.9701 4.75746L41.0299 5.24254L43.5149 15.1828L45.4552 14.6977ZM26 6H42V4H26V6Z" fill="white" fill-opacity="0.5" mask="url(#path-2-inside-1_5_35)"/>
<circle cx="97" cy="12" r="2.5" stroke="white" stroke-opacity="0.5"/>
<rect x="52.5" y="10.5" width="37" height="3" rx="1.5" stroke="white" stroke-opacity="0.5"/>
<rect x="44.5" y="294.5" width="63" height="3" rx="1.5" stroke="white" stroke-opacity="0.5"/>
</svg>
