<svg width="414" height="277" viewBox="0 0 414 277" fill="none" xmlns="http://www.w3.org/2000/svg">
<line x1="6.5" y1="2.18557e-08" x2="6.49999" y2="277" stroke="white" stroke-opacity="0.18"/>
<line x1="406.5" y1="2.18557e-08" x2="406.5" y2="275" stroke="white" stroke-opacity="0.23"/>
<line y1="6.5" x2="414" y2="6.5" stroke="white" stroke-opacity="0.21"/>
<line x1="1" y1="266.5" x2="414" y2="266.5" stroke="white" stroke-opacity="0.12"/>
<path d="M27.9674 120.009C25.6977 123.005 23.1774 125.652 21.4427 128.929C20.0819 131.499 16.8376 132.62 20.1626 135.206C21.9417 136.589 23.3113 138.185 25.3245 139.335C27.1803 140.396 27.4427 142.789 29.454 143.795" stroke="white" stroke-opacity="0.3" stroke-linecap="round"/>
<path d="M386.743 118C388.787 120.779 391.239 125.249 394.176 127.085C395.36 127.824 395.223 129.732 396.406 130.471C397.946 131.433 394.941 132.531 394.342 133.61C392.92 136.168 391.01 137.966 389.551 140.299C388.313 142.281 386 143.628 386 146.246" stroke="white" stroke-opacity="0.3" stroke-linecap="round"/>
</svg>
