<svg width="160" height="60" viewBox="0 0 160 60" fill="none" xmlns="http://www.w3.org/2000/svg">
<circle cx="30" cy="30" r="30" fill="#394751"/>
<path fill-rule="evenodd" clip-rule="evenodd" d="M32.25 24.1729V39.84H27.7271V24.1729C27.7271 23.2559 26.9816 22.5122 26.0625 22.5122C25.1434 22.5122 24.3979 23.2559 24.3979 24.1729L24.375 24.1729V39.84H19.8521V24.1729C19.8521 23.2559 19.1066 22.5122 18.1875 22.5122C17.747 22.5122 17.3225 22.6875 17.0105 22.9987L15.4114 21.4034L17.0105 22.9987C16.6986 23.3099 16.5229 23.7335 16.5229 24.1729C16.5229 24.6136 16.6982 25.0355 17.0105 25.3471L13.8123 28.5377C12.6524 27.3805 12 25.8111 12 24.1729C12 22.537 12.652 20.9657 13.8123 19.8081C14.9727 18.6505 16.5478 18 18.1875 18C19.6833 18 21.0552 18.5296 22.125 19.4111C23.1948 18.5296 24.5667 18 26.0625 18C27.559 18 28.9314 18.5301 30.0015 19.4123C31.0734 18.5301 32.4483 18.0001 33.9476 18.0001C36.6922 18.0001 39.0202 19.7764 39.835 22.2373C40.4531 22.0315 41.1147 21.92 41.8024 21.92C45.2251 21.92 48 24.6812 48 28.087C48 33.53 44.8762 38.2475 40.3153 40.5612C40.587 41.1112 41.1554 41.4899 41.8125 41.4899V46C39.1315 46 36.848 44.305 35.9842 41.9328C35.3161 42.0298 34.6327 42.08 33.9375 42.08V37.5721C34.5063 37.5721 35.0634 37.5225 35.6048 37.4274V28.087C35.6048 27.9679 35.6082 27.8497 35.6149 27.7323V24.1701C35.6149 23.2536 34.8682 22.5102 33.9476 22.5102C33.027 22.5102 32.2803 23.2536 32.2803 24.1701H32.25V24.1729ZM40.1452 35.2849C42.1804 33.5452 43.4697 30.9657 43.4697 28.087C43.4697 27.1709 42.7231 26.4279 41.8024 26.4279C40.9441 26.4279 40.237 27.0737 40.1452 27.9035V35.2849Z" fill="white"/>
<path d="M95.168 20.4L86.684 40H82.204L73.748 20.4H78.648L84.612 34.4L90.66 20.4H95.168ZM96.0699 24.936H100.438V40H96.0699V24.936ZM98.2539 22.836C97.4512 22.836 96.7979 22.6027 96.2939 22.136C95.7899 21.6693 95.5379 21.0907 95.5379 20.4C95.5379 19.7093 95.7899 19.1307 96.2939 18.664C96.7979 18.1973 97.4512 17.964 98.2539 17.964C99.0566 17.964 99.7099 18.188 100.214 18.636C100.718 19.084 100.97 19.644 100.97 20.316C100.97 21.044 100.718 21.6507 100.214 22.136C99.7099 22.6027 99.0566 22.836 98.2539 22.836ZM107.964 26.924C108.486 26.196 109.186 25.6453 110.064 25.272C110.96 24.8987 111.986 24.712 113.144 24.712V28.744C112.658 28.7067 112.332 28.688 112.164 28.688C110.913 28.688 109.933 29.0427 109.224 29.752C108.514 30.4427 108.16 31.488 108.16 32.888V40H103.792V24.936H107.964V26.924ZM130.444 24.936V37.48C130.444 40.2427 129.726 42.296 128.288 43.64C126.851 44.984 124.751 45.656 121.988 45.656C120.532 45.656 119.151 45.4787 117.844 45.124C116.538 44.7693 115.455 44.256 114.596 43.584L116.332 40.448C116.967 40.9707 117.77 41.3813 118.74 41.68C119.711 41.9973 120.682 42.156 121.652 42.156C123.164 42.156 124.275 41.8107 124.984 41.12C125.712 40.448 126.076 39.4213 126.076 38.04V37.396C124.938 38.6467 123.351 39.272 121.316 39.272C119.935 39.272 118.666 38.9733 117.508 38.376C116.37 37.76 115.464 36.9013 114.792 35.8C114.12 34.6987 113.784 33.4293 113.784 31.992C113.784 30.5547 114.12 29.2853 114.792 28.184C115.464 27.0827 116.37 26.2333 117.508 25.636C118.666 25.02 119.935 24.712 121.316 24.712C123.5 24.712 125.162 25.4307 126.3 26.868V24.936H130.444ZM122.184 35.688C123.342 35.688 124.284 35.352 125.012 34.68C125.759 33.9893 126.132 33.0933 126.132 31.992C126.132 30.8907 125.759 30.004 125.012 29.332C124.284 28.6413 123.342 28.296 122.184 28.296C121.027 28.296 120.075 28.6413 119.328 29.332C118.582 30.004 118.208 30.8907 118.208 31.992C118.208 33.0933 118.582 33.9893 119.328 34.68C120.075 35.352 121.027 35.688 122.184 35.688ZM140.978 40.224C139.391 40.224 137.963 39.8973 136.694 39.244C135.443 38.572 134.463 37.648 133.754 36.472C133.044 35.296 132.69 33.9613 132.69 32.468C132.69 30.9747 133.044 29.64 133.754 28.464C134.463 27.288 135.443 26.3733 136.694 25.72C137.963 25.048 139.391 24.712 140.978 24.712C142.564 24.712 143.983 25.048 145.234 25.72C146.484 26.3733 147.464 27.288 148.174 28.464C148.883 29.64 149.238 30.9747 149.238 32.468C149.238 33.9613 148.883 35.296 148.174 36.472C147.464 37.648 146.484 38.572 145.234 39.244C143.983 39.8973 142.564 40.224 140.978 40.224ZM140.978 36.64C142.098 36.64 143.012 36.2667 143.722 35.52C144.45 34.7547 144.814 33.7373 144.814 32.468C144.814 31.1987 144.45 30.1907 143.722 29.444C143.012 28.6787 142.098 28.296 140.978 28.296C139.858 28.296 138.934 28.6787 138.206 29.444C137.478 30.1907 137.114 31.1987 137.114 32.468C137.114 33.7373 137.478 34.7547 138.206 35.52C138.934 36.2667 139.858 36.64 140.978 36.64Z" fill="#394751"/>
</svg>
