<svg width="168" height="60" viewBox="0 0 168 60" fill="none" xmlns="http://www.w3.org/2000/svg">
<circle cx="30" cy="30" r="30" fill="url(#paint0_radial_9_2)"/>
<path fill-rule="evenodd" clip-rule="evenodd" d="M32.25 24.1729V39.84H27.7271V24.1729C27.7271 23.2559 26.9816 22.5122 26.0625 22.5122C25.1434 22.5122 24.3979 23.2559 24.3979 24.1729L24.375 24.1729V39.84H19.8521V24.1729C19.8521 23.2559 19.1066 22.5122 18.1875 22.5122C17.747 22.5122 17.3225 22.6875 17.0105 22.9987L15.4114 21.4034L17.0105 22.9987C16.6986 23.3099 16.5229 23.7334 16.5229 24.1729C16.5229 24.6136 16.6982 25.0355 17.0105 25.3471L13.8123 28.5377C12.6524 27.3805 12 25.8111 12 24.1729C12 22.537 12.652 20.9656 13.8123 19.808C14.9727 18.6504 16.5478 18 18.1875 18C19.6833 18 21.0552 18.5296 22.125 19.4111C23.1948 18.5296 24.5667 18 26.0625 18C27.559 18 28.9314 18.5301 30.0015 19.4123C31.0734 18.5301 32.4483 18 33.9476 18C36.6922 18 39.0202 19.7764 39.835 22.2372C40.4531 22.0315 41.1147 21.92 41.8024 21.92C45.2251 21.92 48 24.6812 48 28.087C48 33.5299 44.8762 38.2475 40.3153 40.5612C40.587 41.1112 41.1554 41.4899 41.8125 41.4899V46C39.1315 46 36.848 44.305 35.9842 41.9328C35.3161 42.0298 34.6327 42.08 33.9375 42.08V37.5721C34.5063 37.5721 35.0634 37.5225 35.6048 37.4274V28.087C35.6048 27.9679 35.6082 27.8496 35.6149 27.7322V24.1701C35.6149 23.2535 34.8682 22.5102 33.9476 22.5102C33.027 22.5102 32.2803 23.2535 32.2803 24.1701H32.25V24.1729ZM40.1452 35.2848C42.1804 33.5452 43.4697 30.9657 43.4697 28.087C43.4697 27.1709 42.7231 26.4279 41.8024 26.4279C40.9441 26.4279 40.237 27.0737 40.1452 27.9035V35.2848Z" fill="white"/>
<path d="M79.326 48.112C78.5887 48.112 77.8747 48 77.184 47.776C76.5027 47.5427 75.966 47.244 75.574 46.88L76.092 45.788C76.4653 46.124 76.9413 46.3993 77.52 46.614C78.108 46.8193 78.71 46.922 79.326 46.922C80.138 46.922 80.7447 46.7867 81.146 46.516C81.5473 46.236 81.748 45.8673 81.748 45.41C81.748 45.074 81.636 44.8033 81.412 44.598C81.1973 44.3833 80.9267 44.22 80.6 44.108C80.2827 43.996 79.83 43.87 79.242 43.73C78.5047 43.5527 77.9073 43.3753 77.45 43.198C77.002 43.0207 76.6147 42.75 76.288 42.386C75.9707 42.0127 75.812 41.5133 75.812 40.888C75.812 40.3653 75.9473 39.894 76.218 39.474C76.498 39.054 76.918 38.718 77.478 38.466C78.038 38.214 78.7333 38.088 79.564 38.088C80.1427 38.088 80.712 38.1627 81.272 38.312C81.832 38.4613 82.3127 38.676 82.714 38.956L82.252 40.076C81.8413 39.8147 81.4027 39.6187 80.936 39.488C80.4693 39.348 80.012 39.278 79.564 39.278C78.7707 39.278 78.1733 39.4227 77.772 39.712C77.38 40.0013 77.184 40.3747 77.184 40.832C77.184 41.168 77.296 41.4433 77.52 41.658C77.744 41.8633 78.0193 42.0267 78.346 42.148C78.682 42.26 79.1347 42.3813 79.704 42.512C80.4413 42.6893 81.034 42.8667 81.482 43.044C81.93 43.2213 82.3127 43.492 82.63 43.856C82.9567 44.22 83.12 44.71 83.12 45.326C83.12 45.8393 82.98 46.3107 82.7 46.74C82.42 47.16 81.9953 47.496 81.426 47.748C80.8567 47.9907 80.1567 48.112 79.326 48.112ZM89.0013 47.566C88.8053 47.734 88.5626 47.8647 88.2733 47.958C87.984 48.042 87.6853 48.084 87.3773 48.084C86.6306 48.084 86.052 47.8833 85.6413 47.482C85.2306 47.0807 85.0253 46.5067 85.0253 45.76V41.686H83.7653V40.58H85.0253V38.956H86.3693V40.58H88.4973V41.686H86.3693V45.704C86.3693 46.1053 86.4673 46.4133 86.6633 46.628C86.8686 46.8427 87.158 46.95 87.5313 46.95C87.942 46.95 88.292 46.8333 88.5813 46.6L89.0013 47.566ZM96.9155 40.58L93.3175 48.742C93.0001 49.498 92.6268 50.03 92.1975 50.338C91.7775 50.646 91.2688 50.8 90.6715 50.8C90.3075 50.8 89.9528 50.7393 89.6075 50.618C89.2715 50.506 88.9915 50.338 88.7675 50.114L89.3415 49.106C89.7241 49.47 90.1675 49.652 90.6715 49.652C90.9981 49.652 91.2688 49.5633 91.4835 49.386C91.7075 49.218 91.9081 48.924 92.0855 48.504L92.3235 47.986L89.0475 40.58H90.4475L93.0375 46.516L95.5995 40.58H96.9155ZM98.0298 37.612H99.3738V48H98.0298V37.612ZM108.506 44.332C108.506 44.4347 108.497 44.57 108.478 44.738H102.458C102.542 45.3913 102.827 45.9187 103.312 46.32C103.807 46.712 104.418 46.908 105.146 46.908C106.033 46.908 106.747 46.6093 107.288 46.012L108.03 46.88C107.694 47.272 107.274 47.5707 106.77 47.776C106.275 47.9813 105.72 48.084 105.104 48.084C104.32 48.084 103.625 47.9253 103.018 47.608C102.411 47.2813 101.94 46.8287 101.604 46.25C101.277 45.6713 101.114 45.018 101.114 44.29C101.114 43.5713 101.273 42.9227 101.59 42.344C101.917 41.7653 102.36 41.3173 102.92 41C103.489 40.6733 104.129 40.51 104.838 40.51C105.547 40.51 106.177 40.6733 106.728 41C107.288 41.3173 107.722 41.7653 108.03 42.344C108.347 42.9227 108.506 43.5853 108.506 44.332ZM104.838 41.644C104.194 41.644 103.653 41.84 103.214 42.232C102.785 42.624 102.533 43.1373 102.458 43.772H107.218C107.143 43.1467 106.887 42.638 106.448 42.246C106.019 41.8447 105.482 41.644 104.838 41.644ZM114.048 38.2H115.448V46.782H120.754V48H114.048V38.2ZM122.024 40.58H123.368V48H122.024V40.58ZM122.696 39.152C122.435 39.152 122.216 39.068 122.038 38.9C121.87 38.732 121.786 38.5267 121.786 38.284C121.786 38.0413 121.87 37.836 122.038 37.668C122.216 37.4907 122.435 37.402 122.696 37.402C122.958 37.402 123.172 37.486 123.34 37.654C123.518 37.8127 123.606 38.0133 123.606 38.256C123.606 38.508 123.518 38.7227 123.34 38.9C123.172 39.068 122.958 39.152 122.696 39.152ZM129.729 40.51C130.447 40.51 131.091 40.6687 131.661 40.986C132.23 41.3033 132.673 41.7467 132.991 42.316C133.317 42.8853 133.481 43.5433 133.481 44.29C133.481 45.0367 133.317 45.6993 132.991 46.278C132.673 46.8473 132.23 47.2907 131.661 47.608C131.091 47.9253 130.447 48.084 129.729 48.084C129.178 48.084 128.674 47.9767 128.217 47.762C127.759 47.5473 127.381 47.2347 127.083 46.824V48H125.795V37.612H127.139V41.7C127.437 41.308 127.811 41.014 128.259 40.818C128.707 40.6127 129.197 40.51 129.729 40.51ZM129.617 46.908C130.093 46.908 130.517 46.8007 130.891 46.586C131.273 46.362 131.572 46.054 131.787 45.662C132.011 45.2607 132.123 44.8033 132.123 44.29C132.123 43.7767 132.011 43.324 131.787 42.932C131.572 42.5307 131.273 42.2227 130.891 42.008C130.517 41.7933 130.093 41.686 129.617 41.686C129.15 41.686 128.725 41.7933 128.343 42.008C127.96 42.2227 127.661 42.5307 127.447 42.932C127.232 43.324 127.125 43.7767 127.125 44.29C127.125 44.8033 127.232 45.2607 127.447 45.662C127.661 46.054 127.96 46.362 128.343 46.586C128.725 46.8007 129.15 46.908 129.617 46.908ZM136.486 41.826C136.719 41.3967 137.064 41.07 137.522 40.846C137.979 40.622 138.534 40.51 139.188 40.51V41.812C139.113 41.8027 139.01 41.798 138.88 41.798C138.152 41.798 137.578 42.0173 137.158 42.456C136.747 42.8853 136.542 43.5013 136.542 44.304V48H135.198V40.58H136.486V41.826ZM143.392 40.51C144.419 40.51 145.203 40.762 145.744 41.266C146.295 41.77 146.57 42.5213 146.57 43.52V48H145.296V47.02C145.072 47.3653 144.75 47.6313 144.33 47.818C143.92 47.9953 143.43 48.084 142.86 48.084C142.03 48.084 141.362 47.8833 140.858 47.482C140.364 47.0807 140.116 46.5533 140.116 45.9C140.116 45.2467 140.354 44.724 140.83 44.332C141.306 43.9307 142.062 43.73 143.098 43.73H145.226V43.464C145.226 42.8853 145.058 42.442 144.722 42.134C144.386 41.826 143.892 41.672 143.238 41.672C142.8 41.672 142.37 41.7467 141.95 41.896C141.53 42.036 141.176 42.2273 140.886 42.47L140.326 41.462C140.709 41.154 141.166 40.9207 141.698 40.762C142.23 40.594 142.795 40.51 143.392 40.51ZM143.084 47.048C143.598 47.048 144.041 46.936 144.414 46.712C144.788 46.4787 145.058 46.152 145.226 45.732V44.696H143.154C142.016 44.696 141.446 45.0787 141.446 45.844C141.446 46.2173 141.591 46.5113 141.88 46.726C142.17 46.9407 142.571 47.048 143.084 47.048ZM150.206 41.826C150.439 41.3967 150.784 41.07 151.242 40.846C151.699 40.622 152.254 40.51 152.908 40.51V41.812C152.833 41.8027 152.73 41.798 152.6 41.798C151.872 41.798 151.298 42.0173 150.878 42.456C150.467 42.8853 150.262 43.5013 150.262 44.304V48H148.918V40.58H150.206V41.826ZM161.291 40.58L157.693 48.742C157.376 49.498 157.002 50.03 156.573 50.338C156.153 50.646 155.644 50.8 155.047 50.8C154.683 50.8 154.328 50.7393 153.983 50.618C153.647 50.506 153.367 50.338 153.143 50.114L153.717 49.106C154.1 49.47 154.543 49.652 155.047 49.652C155.374 49.652 155.644 49.5633 155.859 49.386C156.083 49.218 156.284 48.924 156.461 48.504L156.699 47.986L153.423 40.58H154.823L157.413 46.516L159.975 40.58H161.291Z" fill="#5A5A5A"/>
<path d="M87.608 16.4L82.154 29H79.274L73.838 16.4H76.988L80.822 25.4L84.71 16.4H87.608ZM88.1878 19.316H90.9958V29H88.1878V19.316ZM89.5918 17.966C89.0758 17.966 88.6558 17.816 88.3318 17.516C88.0078 17.216 87.8458 16.844 87.8458 16.4C87.8458 15.956 88.0078 15.584 88.3318 15.284C88.6558 14.984 89.0758 14.834 89.5918 14.834C90.1078 14.834 90.5278 14.978 90.8518 15.266C91.1758 15.554 91.3378 15.914 91.3378 16.346C91.3378 16.814 91.1758 17.204 90.8518 17.516C90.5278 17.816 90.1078 17.966 89.5918 17.966ZM95.8339 20.594C96.1699 20.126 96.6199 19.772 97.1839 19.532C97.7599 19.292 98.4199 19.172 99.1639 19.172V21.764C98.8519 21.74 98.6419 21.728 98.5339 21.728C97.7299 21.728 97.0999 21.956 96.6439 22.412C96.1879 22.856 95.9599 23.528 95.9599 24.428V29H93.1519V19.316H95.8339V20.594ZM110.286 19.316V27.38C110.286 29.156 109.824 30.476 108.9 31.34C107.976 32.204 106.626 32.636 104.85 32.636C103.914 32.636 103.026 32.522 102.186 32.294C101.346 32.066 100.65 31.736 100.098 31.304L101.214 29.288C101.622 29.624 102.138 29.888 102.762 30.08C103.386 30.284 104.01 30.386 104.634 30.386C105.606 30.386 106.32 30.164 106.776 29.72C107.244 29.288 107.478 28.628 107.478 27.74V27.326C106.746 28.13 105.726 28.532 104.418 28.532C103.53 28.532 102.714 28.34 101.97 27.956C101.238 27.56 100.656 27.008 100.224 26.3C99.7916 25.592 99.5756 24.776 99.5756 23.852C99.5756 22.928 99.7916 22.112 100.224 21.404C100.656 20.696 101.238 20.15 101.97 19.766C102.714 19.37 103.53 19.172 104.418 19.172C105.822 19.172 106.89 19.634 107.622 20.558V19.316H110.286ZM104.976 26.228C105.72 26.228 106.326 26.012 106.794 25.58C107.274 25.136 107.514 24.56 107.514 23.852C107.514 23.144 107.274 22.574 106.794 22.142C106.326 21.698 105.72 21.476 104.976 21.476C104.232 21.476 103.62 21.698 103.14 22.142C102.66 22.574 102.42 23.144 102.42 23.852C102.42 24.56 102.66 25.136 103.14 25.58C103.62 26.012 104.232 26.228 104.976 26.228ZM117.057 29.144C116.037 29.144 115.119 28.934 114.303 28.514C113.499 28.082 112.869 27.488 112.413 26.732C111.957 25.976 111.729 25.118 111.729 24.158C111.729 23.198 111.957 22.34 112.413 21.584C112.869 20.828 113.499 20.24 114.303 19.82C115.119 19.388 116.037 19.172 117.057 19.172C118.077 19.172 118.989 19.388 119.793 19.82C120.597 20.24 121.227 20.828 121.683 21.584C122.139 22.34 122.367 23.198 122.367 24.158C122.367 25.118 122.139 25.976 121.683 26.732C121.227 27.488 120.597 28.082 119.793 28.514C118.989 28.934 118.077 29.144 117.057 29.144ZM117.057 26.84C117.777 26.84 118.365 26.6 118.821 26.12C119.289 25.628 119.523 24.974 119.523 24.158C119.523 23.342 119.289 22.694 118.821 22.214C118.365 21.722 117.777 21.476 117.057 21.476C116.337 21.476 115.743 21.722 115.275 22.214C114.807 22.694 114.573 23.342 114.573 24.158C114.573 24.974 114.807 25.628 115.275 26.12C115.743 26.6 116.337 26.84 117.057 26.84Z" fill="#3E3E3E"/>
<defs>
<radialGradient id="paint0_radial_9_2" cx="0" cy="0" r="1" gradientUnits="userSpaceOnUse" gradientTransform="translate(9.49999 10.5) rotate(42.7852) scale(64.041)">
<stop stop-color="#27BE63"/>
<stop offset="1" stop-color="#00A2D6"/>
</radialGradient>
</defs>
</svg>
